<?xml version="1.0" encoding="utf-8"?>
<!DOCTYPE svg PUBLIC "-//W3C//DTD SVG 1.1//EN" "http://www.w3.org/Graphics/SVG/1.1/DTD/svg11.dtd">
<!-- Generated by geo2svg 2.4.0. https://d3js.org/d3-geo-projection/ -->
<svg version="1.1" xmlns="http://www.w3.org/2000/svg" xmlns:xlink="http://www.w3.org/1999/xlink" width="960" height="960" viewBox="0 0 960 960" fill="none">
  <path fill="#7f0000" d="M713.5,368L714.5,369.3L720.4,370.5L722.3,372.9L726.9,371.6L728.7,370.1L734.7,370L742.3,370.4L746.3,371.4L747.1,373L752.3,371.5L753.9,367.9L756.5,367.1L761.8,382.1L764.8,388L764.5,393L764.2,395.8L761.7,395.5L759.1,399.3L757.2,400.8L756.2,400.4L739.1,413.5L728.4,421.2L727.3,420.8L724.3,419.5L723.3,414.4L724.1,410L722.9,407.8L722.7,404L720.4,403.7L720.1,400.8L721.5,396.6L720.4,395.7L717.6,396.7L713.1,395.4L711.7,396.2L710.1,387.1L710.5,381.9L711.4,377.4L712.5,376.3L711.8,373.3Z"></path>
  <path fill="#7f0000" d="M709.1,275L707,278.9L707,276.3ZM703.9,277.6L703.9,277.6L703.9,277.6ZM702.8,278.5L702.8,278.5L702.8,278.5ZM702.7,279L702.7,279L702.7,279ZM698.7,271.2L701.8,268.2L702.6,266L703.4,268L709,268.3L708.2,270.6L706.4,270.1L705.5,271.3L708.8,274.2L706.7,274.6L705.8,277.1L704.9,276.3L701.9,279.1L701.3,278.5L702.1,275.5L699.5,276.2L701.1,272.7Z"></path>
  <path fill="#7f0000" d="M702.3,339.7L700,338.8L700.2,337.8L702.5,336.8L704.2,337.2L705.8,336.2L708.1,337.1L709.2,338.8L707,339.9L702.5,339.2Z"></path>
  <path fill="#7f0000" d="M708.8,274.2L709.1,275L707,276.3L707,278.9L706.2,281.8L703.1,282.7L701.9,279.1L704.9,276.3L705.8,277.1L706.7,274.6ZM702.7,279L702.7,279L702.7,279ZM702.8,278.5L702.8,278.5L702.8,278.5ZM703.9,277.6L703.9,277.6L703.9,277.6Z"></path>
  <path fill="#7f0000" d="M857.2,336.9L862.4,337L861.9,345.1L869.3,345.7L873.1,339.8L873.2,350.8L872,358.7L870.8,360.5L868.4,378.9L866.8,382.1L866.5,388L863.2,387.5L858.2,383.3L855.1,377.6L852.4,377.2L848,379.7L846.5,377.8L840,381.2L840,377.6L842.1,364.6L845.6,363.7L848.2,361.3L848.6,354.5L846.2,353.6L846.4,349.3L847.3,349.7L847.7,344.9L853,345.3L855.5,343.4L857.6,343.8ZM839.2,381.2L837.1,381.5L836,378.4L836.9,377.4L837.5,379.5L839.3,380Z"></path>
  <path fill="#7f0000" d="M717.1,707.7L716.1,708.7L721.5,706.5L731,701.4L725.9,705.2L716.7,710.5L715.4,708.2ZM709.8,649.5L717.4,648.2L730.4,642.2L731.5,642.3L730.1,647.9L740.2,640.4L742.4,635.9L741.6,634.3L744.2,632.4L746.3,634.5L741.1,641.7L737.1,649.8L737.6,654.8L738.5,655.6L737.7,657.3L739,658.6L744.5,656.2L744.5,657.6L747.2,656.3L748.1,656.9L746.1,661.2L743.8,663.7L734,672L729,675.1L730.9,675L730,677.5L730.9,678L725.9,682L720.3,685.1L721.9,686.4L724.4,685.5L726.8,683.2L727.9,683.4L722,689.3L722.9,689.9L722,691.7L716.9,695.4L714.9,697.9L718.8,697.3L723.1,694.9L723.6,695.8L717.2,701.6L716.6,703.5L712.6,706.5L712,707.8L716,707.5L709.3,710.9L701.3,715.5L699,716.1L698.9,714.8L695.3,716.9L692.7,716.4L696.5,713.3L696.1,712.1L698.8,708.6L697.6,707.5L699.3,705.9L695.7,707L699.5,704.5L696.4,706L696,704.1L694.2,704.8L693.7,703.8L695.2,702.6L693.2,701.2L693.9,697.4L696,695.5L693.1,693.8L695.5,691L694.1,689.9L696.1,686.6L695.5,685.2L694,685.6L690.5,683.3L692.2,680.1L690.6,679L691.1,676.6L693,672.5L694.7,671L693.2,670.9L692.5,668L691.4,667.8L695.1,663.7L695.1,661.1L694.3,661.2L696.5,657.1L698.6,656.6L702.9,654.1L704.6,654.7L704.9,652.2L708.9,649.5Z"></path>
  <path fill="#7f0000" d="M110.1,554.3L113.3,560.3L118,566.3L116.5,567.2L114.4,566.7L113,564.6L111,563.7L108.2,557.6L109.1,557.3L108.5,553ZM100.2,520L101,522.3L97.6,516ZM138.9,495.4L138.4,496.7L137.4,494.6ZM133.5,470.5L135,472.9L134.9,474.2L132.8,472.5ZM156.5,512.2L154.8,517.6L151.9,521L154,523.2L154.2,527L151.4,529.2L151.8,531.7L149.4,533.6L148.7,535.3L152.1,545.7L151.2,545.9L151.7,548.3L150.2,551.6L151.8,552.4L152.4,554.9L151.5,557L153,561.6L153.4,568.1L151,569.1L150.2,573L145,573.8L141.5,573.5L137.3,570.7L133,570.4L130,568.8L127.2,569.7L120.8,561.9L117.5,559.1L115.8,556.7L115.6,557.7L114,553.4L113.8,550.9L109,546.4L106.9,541.5L104.9,538.3L103.1,533.8L102.6,530.3L103.7,529.7L103.4,526L104.5,526.9L101.4,522.1L103.2,523.2L103.7,520.8L101.4,520.2L101,518.9L102.3,518.2L104.4,519.7L104.9,518.5L102.6,516.9L98.5,512.5L97.5,510.8L98.3,506.4L97.4,504.6L98.4,503.7L98,501.2L95.4,495.4L94.4,490.7L90.1,482L86.2,475.3L84.1,469.9L80.2,463.3L77.4,460.7L72.3,445.6L67.5,437.3L65.9,430.8L65.5,424.1L66.8,423.7L68.1,426.7L70.7,426.2L72.4,422.5L74.7,421.2L78.7,412.7L78.3,414.7L80.6,416.9L82.6,412.5L88.6,413.8L87.3,414.7L89.3,416.4L94,424.2L95.1,428.2L98.3,433.4L101.5,440.9L106.5,445.1L108.1,443.8L110.9,446L109.2,449.5L111.4,448.1L112.6,449L112.7,451.2L114.7,452.6L115.1,451.2L117.2,454.7L117.7,453.3L119.5,456.5L122.4,459L122.8,461.3L122.3,464.8L123.7,471.1L125,471.5L125,468.9L129.3,470.5L131.2,473L132.5,473L134.3,478.2L136.4,478.5L135.6,474.8L136.9,476.7L137.1,480.4L140.5,491.5L142.6,492.7L142.5,494.7L138.6,491.9L137.7,492.8L134.2,492L134.6,497.8L135.8,501.7L135.8,503.9L137,507.1L136.6,508.5L138.5,513.3L143.6,514.8L151.1,511.1L153.1,512L155.6,511Z"></path>
  <path fill="#7f0000" d="M597.7,566.6L599.9,568L599.4,569ZM596.4,562L594.7,563.6L593.7,563.4Z"></path>
  <path fill="#7f0000" d="M194.3,321.8L192.2,322L192.5,320.8L190.5,321L195.8,319.1L196.4,316.5L193.8,314.8L193.3,311.7L194.7,311.1L198.1,311L199.5,309.8L201.2,310.4L202.7,308.3L204.2,309.6L204.5,311.2L206.3,308.6L208.5,309.6L206.8,312.2L207.2,313.4L204.5,313.6L203.7,321.1L201.7,320.3L200.8,318.1L199.3,317.4L197.2,318.8L199.6,319.8L199.6,320.8Z"></path>
  <path fill="#7f0000" d="M578,605.2L577.1,605.5L575.4,599.9L577,597.3L578.2,597.7L579,601.4Z"></path>
  <path fill="#7f0000" d="M692.8,339.5L696.6,338.8L697.1,339.5L697.7,340.8L699.8,341.6L698.6,343.3L694.1,346.2L690.9,346.6L691.7,341.1Z"></path>
  <path fill="#7f0000" d="M694.3,661.2L691.8,662.8L688.9,660.6L685.8,660.2L685.9,657.6L683.7,657.9L682,656.3L679.8,656.1L679,655.8L680.8,652.4L677.9,652.2L678.4,650.9L677.1,650.5L678.2,648.2L676.1,645.7L676.7,644.3L671.7,642.9L675.2,641.2L680.3,634.6L684.2,631.5L686.2,634.8L688.6,635.4L691.2,635L695.8,632.4L701.2,631.3L703.7,629.4L706,628.6L708.5,630.6L707.5,631.3L710.5,632.5L716.6,628.1L717.7,630L720.3,629L721.9,629.5L722.5,634.7L722,634L718.2,635.6L709.6,642.6L709.8,649.5L708.9,649.5L704.9,652.2L704.6,654.7L702.9,654.1L698.6,656.6L696.5,657.1Z"></path>
  <path fill="#7f0000" d="M194.6,347.6L190.6,344.8L190.4,343.1L188.5,341.6L188.4,338.7L184.6,338.1L184.5,336.8L177.9,341.5L178.3,342.2L174.2,340.2L170.5,343.7L168.5,343.7L165.1,345.8L160.5,343.1L168.7,341.9L171.2,340.4L169.7,340.4L173.6,339L178.5,338.4L178.3,337.3L181,335.5L178.8,335.3L175.6,331.2L177.1,329.7L176.2,327.4L181,328.4L188.1,325.4L188.6,322.7L191.4,320.8L192.2,322L194.3,321.8L195.2,323.6L200.8,323.9L200.2,326.3L203.8,327.9L205,327.5L207.1,329L208.8,328.8L211,331.7L210.6,334.4L212.2,333.6L215.2,335.3L212.2,337.7L212.3,338.8L207.1,339.2L203.4,336.1L200.9,336.2L201.9,340.2L198.9,340.5L198.3,342.5L195.8,341.5L195.7,343.9L193.9,344.9Z"></path>
  <path fill="#7f0000" d="M798.7,411.6L788.1,409.4L786.4,411L784.9,410L784.1,407.9L784.7,406.1L783.8,404.5L782.7,402.7L785.4,400.8L788.7,400.8L792.2,404.4L792.1,405.5L799.4,407.8Z"></path>
  <path fill="#7f0000" d="M200.3,565.7L201.9,569L199.3,566ZM202.1,563.6L201.8,564.1L200.1,558.3ZM197.9,554.8L196.8,553.1L196.8,550.7Z"></path>
  <path fill="#7f0000" d="M712.7,583.4L712.2,581.2L713.6,580.9ZM716.5,575.5L720.2,572.2L721,574.4L720.5,576.9L716.9,580.8L715.7,580.6L714,577.9ZM661.8,628.9L659.7,621.2L657.9,619.8L656,619.8L655,618L657.8,616.1L656.8,615.5L655,616.5L654.1,615L660.1,611.3L661,609.4L663.5,611L664,610.5L666.5,610.5L668.3,608.5L669.1,609.2L673.2,601.5L670.8,602L668.6,599.8L665.8,599.4L668.7,598.7L670.6,597.2L672.6,597.2L672.2,595.8L676.6,591.1L676.2,589L678,587.7L679,589.4L680.6,588.7L681.7,589.5L682.4,593.1L685,594.5L688.4,593.9L691.3,588.9L695.5,585.9L694.3,584.6L698.4,582L703.4,578.3L703.1,570.5L705.2,570.4L709.5,573L712.4,572.1L713.4,573.2L712.1,579.1L712.2,584.6L714.6,579.7L716.6,580.9L714.6,582.4L717.3,581.9L716.7,581.1L720.3,577.4L721.3,579.5L721.5,575.4L722.6,575.1L721.7,573.3L723.3,570.4L727.3,567.9L731,567.2L731.7,565.3L733.7,565.4L735.4,568.6L735.7,566.5L737.4,563L744.1,558.4L746.9,554.6L758,550L762.9,545.3L769.2,547.3L771.1,551.3L770.8,556.7L769.4,559.4L770.6,565.1L769.2,567.6L769.5,569.7L774.2,572.7L775.5,575.7L776.7,576.3L776.2,578.7L778.1,581.3L777.5,587.3L778.7,588.4L777,591.4L777.1,593.1L769.6,601.5L770.3,601.7L768.5,604.9L765.6,607.9L760.6,617.2L761.9,616.4L761.2,618.5L763.8,619.2L764.7,622L762.7,626.2L761.6,631.6L758.6,637.1L758.1,636.6L760.4,633.7L761.4,630.2L758.5,631.6L759.5,632.7L757.9,635.6L757.8,640.1L756,643.1L754.8,642.7L755.8,640.8L752.2,642L744.9,645.2L743.7,646.7L739.8,647.5L737.1,649.8L741.1,641.7L746.3,634.5L744.2,632.4L741.6,634.3L741.3,632.1L740,631.1L736.7,633.9L733,632.3L725.6,637.6L724.7,635.2L722,633.8L721.9,629.5L720.3,629L717.7,630L716.6,628.1L710.5,632.5L707.5,631.3L708.5,630.6L706,628.6L703.7,629.4L701.2,631.3L695.8,632.4L691.2,635L688.6,635.4L686.2,634.8L684.2,631.5L680.3,634.6L675.2,641.2L668.1,645.1L666.5,641.5L664.5,644.3L661.6,645.9L660.2,645.2L657.2,646.6L657.6,645.2L652.2,644L652.4,642L654,639.9L653.2,636.4L659,630.3Z"></path>
  <path fill="#7f0000" d="M703,319.3L703.8,323.2L704.9,323.8L705.2,325.8L704,328.2L704.6,331.4L703.3,331.1L701.4,332.5L698.8,330.9L696.7,332.2L695.5,331.4L696.7,331L697.7,325.2L696.2,321.5L697.5,318L701.5,320.6Z"></path>
  <path fill="#7f0000" d="M154.5,401.1L151.8,400.5L152.9,398.2Z"></path>
  <path fill="#7f0000" d="M602.1,485.3L603,487.1L604.8,486.8L602.8,489.7L601.6,488.3ZM595.8,490.1L597.9,489.9L600.1,488.2L599.5,490.5L597.5,490.9ZM594.6,480.9L595.8,481L593.2,482.5L589.6,482.6ZM465.1,512.7L468.7,513.9L469.9,516.6L471.9,517.7L473,520L469.1,518.8L467.2,515.8L463.6,514.2L462.7,512.1ZM610.3,472.3L612.6,474.4L612.6,472L614.2,473.1L615.2,475.8L610.9,474.5L610.4,476.1L608.3,478L608.1,476.4L607.1,478.9L603.1,481.8L602,481.3L601.9,478.8L600.7,471.8L600.8,467.8L603.2,474L603.2,471.6L604.6,471.1L604.6,473.3L609.3,470.3L609.2,472.1ZM555.1,489.8L556.4,490.9L553.5,491.1ZM455,501L457.3,501.2L456.3,503.8L454.5,502.6ZM547,464.5L547.6,466.5L546.5,466.5ZM542.8,464.8L541.6,467.5L540,467.4L540.5,465.7ZM534.5,460.1L541.3,460.9L541.9,461.7L544.5,461.6L543.5,463L541.1,463.3L539.6,462.5L537.3,466.5L536,465.3L533.8,466.4L534.9,464.6L533.8,461.1ZM546.3,448.1L547.7,449.7L544.8,451.1L544.7,449ZM458.2,461.3L457.8,461.2L456,459.6L459.2,459.4ZM513.9,456.6L517.6,457.7L515.9,459.1L511,458.9ZM457.8,461.2L458.2,461.3L457.8,460.4L464.2,458.7L465.9,459L463.5,460L468.7,459L471.7,461.3L473.3,459.5L473.2,461.3L475.5,460.3L477.5,460.4L484.4,462.5L486.7,462.2L489.2,463.8L486.9,464.7L491.9,465L495.4,463.8L497.7,464.5L497.9,465.6L500.3,467.3L500.4,466.1L498.8,463.3L501,462.8L502,461.5L498.7,462.8L497.9,462.1L501,460.9L504,462.6L505.6,462L507.6,462.7L513.9,461.1L512.6,460.1L516.8,459.4L516.5,461.4L518.8,462.1L517.5,460.5L520.2,457.6L520,455.8L515.9,455.9L514.9,455.3L514.3,452.9L516.7,450.9L519.3,451.4L519.5,452.4L522.1,453.2L520.4,454.9L524.6,455.6L525.3,456.9L526,454.2L528.1,454.5L528.3,456.6L530.4,457.7L531.5,457L531.6,453.5L533,452.2L531.2,451L537.4,450L538,451.1L536.2,452.3L539.1,453.7L539.2,454.9L536.8,458.1L531.9,459.1L533.5,459.4L532,462.3L528,462L525.3,462.8L532.8,462.5L531.9,465.6L528.7,466.7L529,468L526.5,468.5L528.8,469.6L526.1,471.1L527.1,471.4L524.8,474L524.1,478.3L524.9,482.2L528.1,482.4L530.5,485.8L530,487.3L533.4,485.2L544,486.5L545.7,486.9L550.6,485.4L553.1,491.3L558.4,494.1L557.9,495.8L560.1,494.3L560.7,489.7L558.3,487.4L557.6,485.5L555.7,484.8L558.5,481.4L559.2,477.8L556.9,474.3L552.9,473.3L552.5,472.5L553.8,469.9L550.9,467.5L551.2,465.1L549.3,463.8L549.9,462.6L555,461.5L555.9,459.9L561.1,461.2L564.6,460.2L567.2,465.2L569.1,464.2L571.3,465.7L572,462.2L573.3,460.7L572,459.3L572,457.1L573.5,457.2L574.7,458.6L577.6,459L578.3,460L580.8,460.5L580,461.5L582.5,461.2L582.4,463.6L584.1,463.9L586.3,463.2L587.1,465.5L589.4,463.2L590.1,463.8L593,462.6L590.6,468.4L590.6,469.3L593.8,463.6L597.7,463.6L599.1,465.3L598,466.2L600.2,466.4L599.5,469.6L597.1,472L596.6,476.2L585.5,483.8L585.4,487.2L583.3,490.6L582.2,498.4L585,490L587.6,486.4L589.8,484.8L592.4,485.8L591.4,488.3L589.3,489.4L591.4,489.7L592.6,488.2L592.8,490.8L593.8,490.1L595.8,491.9L600.7,491L601.2,489.6L604,489.8L599.3,495.9L598.7,500.4L596.8,500.2L596.2,497.9L597.4,494.3L598.7,494.8L599.5,492.8L596.6,494.9L597,492.8L594.2,497.3L592.5,498L590.6,497.3L588.3,493.7L585,494.2L585.4,502L577.6,507.1L575.8,512.8L571.9,514.7L571.1,515.6L572.4,517.3L565.9,524L564.4,523.4L565.1,521.1L564.8,518L561.7,513.2L558,512.4L557.1,511.2L546.5,509.2L544.9,510.9L541.5,511.1L540.6,512L536.9,511.3L533.4,511.9L532.1,511.4L474.1,518.2L473.6,518.2L473.4,518.2L470.8,515.7L470.2,514L467,512.8L467.3,511.9L464.5,511.5L464,509.4L465.6,507.6L463.5,507L462.3,503.6L460.3,502.4L461.5,501.4L459.6,500.8L461.9,497.8L461,496.4L457.8,494L455.6,488.3L452.5,483.9L448.6,485.8L448.5,484.9L446.2,482L446.5,481.3L443.2,480.7L448.4,457.3L456.4,461.1ZM488.7,453.7L494.7,453.3L497.8,454.2L496.8,452.2L498.9,451.6L501.1,452.4L502.9,454.6L502.7,455.8L504.4,456.5L508.3,456.7L508.7,457.6L504.9,458.5L506.1,460.4L500.7,460.4L496.7,462L490.7,463.1L489.9,461.5L485.3,461.2L483.9,459.9L487.2,459.2L492.7,458.6L489,458.1L483.6,458.6L482.3,457.8L487.3,456.4L482.8,456.9L481.3,456.1L482.1,454.6L487.8,452.6ZM501.1,450.4L501.1,452.2L498.5,451.3ZM535.1,440.4L538.7,439L541,439.3L536.8,441.7L534.4,441.5ZM549.3,446.5L546.6,446.6L544.4,448L545.3,446.2L539.3,445.9L540.2,446.9L535.9,448.3L530.5,450.5L529.2,450L527.2,451.4L523.8,450L522.9,448.1L524.3,445L528.9,442.9L527.1,445.8L528.5,446.8L528.5,444.4L533.2,441.2L535.7,442.2L538,442.3L539.2,440.6L542.5,439.5L545.1,439.9L549,439L547.8,441.3L549.9,439L553.4,438.2L551.4,441.2L554.4,438.4L555.9,438.9L552.4,441.5L556.2,441.3L554,442.4L559.3,441.5L561.2,440.3L563.2,441L564.2,440.2L565.4,441.5L565.9,439.9L567.7,440.7L565.9,442.1L567.4,442.6L565.7,444.2L567.1,445.7L563.2,445.6L559.9,445.1L558.8,446.1L560.7,446.7L561.1,448.2L565,448.9L566.8,448.6L568.5,451.1L565.6,452.6L561.1,453L567.5,453.8L568,454.7L558.9,456.6L556.9,456.4L553.7,454.5L552,456.2L550.1,456.5L549.3,458.1L546.6,458.3L546.8,455.7L549.1,455L552.4,452.8L550.2,452L552,447.9ZM508.4,448.7L512.5,448.1L511.5,449.7L514,451.5L511.1,453.7L508,452.3L504.8,451.8L505.5,450.9L508.1,451.1L508.8,450L506.7,449.4ZM518.2,445.8L521.6,445.1L519.7,448.2L515.8,450.9L514.2,447.7L515.3,446.6ZM479.8,451L481.2,451.6L483.6,451.1L486.7,452.4L479.6,455.1L479.2,456.6L475.9,457.5L471.2,455.4L474.6,451.9L473.3,450.7L477.8,450.5ZM515.1,443.8L516.7,445L512.3,445.7ZM509.2,443.4L510.6,443.9L510.1,445.6L507.5,446.8L506.5,446.3L508.9,445.1L505.8,445.7L504.7,444.7ZM495.4,445.5L496.5,447.2L498.8,446.4L500.2,446.9L499.5,448.1L495.5,448.6L490.2,450.4L487.8,450L492.6,448.6L486.9,449.5L483.2,449.2L486.9,448.2L484.5,447.9L487,446.8L490.4,447.1L492.1,448.2L495.4,447.9L493.1,446.5ZM512.7,441.8L521.4,440.6L518.4,441.6L525.5,440.9L528.7,438.8L534.4,437L534.3,438.9L532.3,440L529.8,440.1L529.1,441.2L523.5,443.3L519.4,444.4L517.8,443.7L518,442.5L516.4,442L511.1,442.8ZM484.9,445.2L485.6,446.5L479.4,448.2L475.8,447.6L481.1,445.6ZM493.9,443.7L490.8,445.2L489,444.6ZM510.6,439.8L513.3,440L510.5,441.2L508.6,440.5ZM501.6,440.7L507.1,440.7L506.9,442L501.9,441.9ZM514.9,435L517.6,435.1L521.4,434L522.1,435L525.4,434.2L522.9,435.4L521.1,437.5L516.9,438.8L513.7,438.5L518.6,436.6L512.6,438.4L510.2,437.5ZM540.8,421.8L550.9,416.2L541.5,425.8L533.7,430.5L538.2,428.7L537.9,430.1L534.3,432.4L535.2,432.7L533.6,434.6L535.2,434.8L532.2,436.2L527.6,437.7L527.7,438.2L520.8,440.3L524.2,438L522.2,437.7L528.3,436.2L523.2,436.7L523.2,435.8L529.7,432.8L526.2,434L522.9,433.6L526.3,432.4L529.5,430.5L524.6,432.7L519,434.2L515.7,434.4L526.6,429.6L529.8,427.6L536.9,424.2Z"></path>
  <path fill="#7f0000" d="M176.1,370.3L170,371.6L167.1,366.4L164.7,367.9L164.7,364.2L162.8,362.2L162.7,359.4L164.6,359L163.6,357.7L171.1,354.2L173.6,356.5L174.6,363.1L173.8,366L175.1,365.6L176,367.2L175.3,368.4Z"></path>
  <path fill="#7f0000" d="M159.9,280.6L155.8,283.9L152.2,285.3L149.9,284.3L148.8,280.4L149.9,278.6L155.3,278.1L159.4,279.8Z"></path>
  <path fill="#7f0000" d="M819,373.6L819.7,369.1L821.9,363.8L820.5,363.1L817.1,361L816.9,358.1L818.1,354.1L821.3,356.4L828.6,358.6L832.2,364.8L835.3,365.1L836.7,366.6L838.5,371.5L836.7,372.3L836.8,374.9L837.7,376.3L836,378.4L837.1,381.5L833.7,384.3L832.9,382.8L833.5,381.3L829.9,382L830.5,378.6L829.3,377.8L830.9,376.7L830.7,373.8L831.9,372.6L830.5,371.2L827.2,370.4L825.7,372.6L823.1,369.9L821.6,370.7L821.5,374.4Z"></path>
  <path fill="#7f0000" d="M857.2,336.9L857.6,343.8L855.5,343.4L853,345.3L847.7,344.9L847.3,349.7L846.4,349.3L846.2,353.6L848.6,354.5L848.2,361.3L845.6,363.7L842.1,364.6L840,377.6L840,380.4L839.2,381.2L839.3,380L837.5,379.5L836.9,377.4L837.7,376.3L836.8,374.9L836.7,372.3L838.5,371.5L836.7,366.6L835.3,365.1L832.2,364.8L828.6,358.6L821.3,356.4L818.1,354.1L815.7,354.1L813.8,350.8L816.2,346.8L817.5,340.5L815.6,338.6L816.4,336.8L815.1,333.2L815.7,332.1L814.5,329.1L815.1,327.9L815.7,322.4L817.8,319.2L816.8,314.6L820,310.3L822.9,310.7L823.7,308.6L827.3,313.4L833.3,314.7L836,317.4L841.4,315.3L846.2,314.8L851,310L851.7,317.3L853.7,319.4L857.2,318.1L859.4,319.5L861.4,316.8L860.8,313.7L864,313.6L863.8,316.8L861.7,319.1L861.1,322.3L859.3,324.1L860.3,325.4L859.3,331.5L858.2,331.5L858.7,335.1Z"></path>
  <path fill="#7f0000" d="M836.9,316.8L837,313.7L835.8,313.3L836,311L837.2,311.6L838.2,310L840.9,313L841.4,315.3Z"></path>
  <path fill="#7f0000" d="M194.6,377.2L193.6,378.4L189.2,376.2L188.3,374.8L188.7,371.9L191,371.3L193.2,372.9ZM277.4,406.9L278.4,404.7L276.6,405L274.6,403.8L273.8,402L272.1,402.9L272.2,399.7L268.8,398.8L265,396L258.3,390L260.7,390.7L260.8,389.3L264.6,390.8L265,387.9L262.3,386.9L260.6,385.1L257.9,384.4L257,381.6L254.8,382.1L254.9,385.1L252.4,386.1L252.5,388.2L255.4,389.9L254.8,392.3L255.5,394.6L253.9,395L253.8,393.6L251.7,391.2L245.3,388.9L244.4,392.1L239.8,395.2L238,398.7L238,395.1L235.7,399.5L231.9,395.7L233.2,398.6L232.7,401.2L230.5,401.4L228.7,399.7L227.4,401.4L226,398.9L225.6,399.8L223.2,399.5L221.1,397.4L219,398.5L214.8,396.4L213.8,396.8L208.7,391.8L207.3,392.1L204.2,385.3L205.4,383.3L202.9,384.1L201.5,382.6L200.9,379.5L199.6,379L198.4,375.4L196.6,375L195.7,376.4L194.6,374.7L196.5,373.5L198.3,374L198.9,372.8L197.7,371.7L198.9,369.4L197.5,368.2L198.3,364L200.8,363.7L200.9,360.2L201.6,359.4L198.5,355.7L199.1,353.7L197.9,353L198.7,351.2L196.7,348.7L193.5,349.7L193.5,348.2L195.2,347.4L193.9,344.9L195.7,343.9L195.8,341.5L198.3,342.5L198.9,340.5L201.9,340.2L200.9,336.2L203.4,336.1L207.1,339.2L212.3,338.8L212.2,337.7L215.2,335.3L214.2,334.8L214.4,332.1L215.8,332.7L217.9,331L216.4,329.2L217.3,327.1L212.5,321.3L212.2,318.8L213.2,317.8L213.4,313L210.8,311.1L213,310.9L212.6,308.9L212.6,306.2L215.8,298.8L217.5,297.9L217.4,296.3L221.4,292.6L221.3,289.7L225.7,284.9L225.4,284L229.4,283.5L228.6,284.9L229.7,286.6L232.4,285L234.9,285.8L236,284.1L238.9,283.3L240.5,279.2L243.2,278.9L245.5,275.5L245.9,277.6L249.3,277.3L250.2,274.9L252.9,275L254.6,276.1L255.8,280.2L254.6,281.9L256.5,283.5L256.1,286.3L259.1,291.8L260.6,291.9L262,293.5L265.1,292.8L267,293.4L267.7,292L268.6,296.2L267.7,298.1L269.2,297.7L274.1,299.7L272.6,303.4L273.3,305.1L277.3,305.8L277.7,307.6L279.4,309.3L279.6,310.4L277.7,310.6L276.5,312L275.5,315L271.5,317.1L268.3,316.3L267.3,316.8L266.4,322.8L264.5,327.1L263.6,326.9L259.7,329.5L260.4,339.9L258.1,350L261.8,355.3L262.5,359.6L264.1,361.9L267.6,364.7L269.5,363.1L271.9,363.8L271.7,367.7L274.2,369.2L275,371.7L278.1,372.9L279.4,374.4L281.3,379.5L282.6,378.7L284.3,375.5L282.6,373.4L282.4,369.5L288.7,370.2L288.4,372.8L290.7,375.1L291.8,374.6L297.8,376.2L299.2,374.2L301.2,375.3L303.5,379.8L303.2,385.6L297.1,391.3L295.9,391.7L295.8,398.9L292.8,401L294.2,404L295.8,404.6L297.8,407.6L296.3,408.4L294.7,407.8L291.4,408.7L287.5,408.6L286.9,405.8L284.6,404.6L280.8,407.2Z"></path>
  <path fill="#7f0000" d="M245.4,276.8L244.9,275.8L245.2,270.8L243.8,267.1L241.4,267.6L239,265.4L237.4,265.3L238,262.3L235.6,262.8L235.2,260.5L231.9,259.3L231.2,257.7L232.3,256.2L231.1,254.8L231.4,251.9L230.8,250.8L227.6,249.6L229.2,239.2L231.9,235.4L234.5,239L235.7,239L236.8,236.9L241.7,237.8L242.7,239.2L245,238.7L248.7,242L246.5,244.1L246.9,246.4L248.1,246.8L248.4,250.5L250.7,252L251.4,254.5L250.3,256.4L249,259.3L248,259.8L249.2,263.8L248.7,265.3L249.9,265.6L251.1,267.9L249.1,269.1L246.6,268.1L245.2,268.5L246.9,273Z"></path>
  <path fill="#7f0000" d="M213.1,315.5L213.2,317.8L210.7,320.1L209.4,320L208.9,313.1L209.8,311L213.4,313Z"></path>
  <path fill="#7f0000" d="M717.8,710.1L719.7,710L711.1,714.4ZM698,719.4L701.5,718L698.6,720ZM707.1,716L702.4,718.4L710.3,714L715,711.1L709.7,713.3L712.8,710.8L708.3,713.5L708.1,713.1L712,710L715.4,708.2L716.8,710.7ZM687.7,717.4L689.4,718.5L688,719.7L684.6,720.4L687,719.2ZM686.1,707L688.6,706.5L687.1,708L688.7,708L685,710.2ZM680,656.4L682,656.3L683.7,657.9L685.9,657.6L685.8,660.2L688.9,660.6L691.8,662.8L695.1,661.1L695.1,663.7L691.4,667.8L692.5,668L693.2,670.9L694.7,671L693,672.5L691.1,676.6L690.6,679L692.2,680.1L690.5,683.3L694,685.6L695.5,685.2L696.1,686.6L694.1,689.9L695.5,691L693.1,693.8L696,695.5L693.9,697.4L693.2,701.2L695.2,702.6L693.7,703.8L694.2,704.8L696,704.1L696.4,706L699.5,704.5L695.7,707L699.3,705.9L697.6,707.5L698.8,708.6L696.1,712.1L696.5,713.3L692.7,716.4L695.3,716.9L698.9,714.8L699,716.1L701.3,715.5L709.3,710.9L712.5,709.4L706.4,713.7L706.3,715.2L702.7,716.9L704.9,714.6L699.3,718.1L697.4,718.8L703.5,715.1L697.9,718.1L695.4,720.1L693.7,719.7L695.6,718.8L693.2,718.6L688.5,719.7L692,718L689.7,718.2L687.3,717L692,714.8L690.9,714.3L687.4,716L689.6,714.1L681.9,717.6L687,713.5L689.5,713.1L690.5,710.3L693.3,707.9L690.3,708.9L690.9,705.8L692.6,704.7L691.4,704L686.6,706.7L685,706.1L687,702.1L683.5,699.7L685.3,698.6L688.3,687.7L685.5,685.2L686.3,682.8L684.5,681.7L685.5,678L685,673L683.3,669.6L682.4,670L682.2,664.9L677.5,659.7L679,658.6Z"></path>
  <path fill="#7f0000" d="M805.4,363.6L809,367.9L813.1,367.4L818.6,363.3L820.5,363.1L821.9,363.8L819.7,369.1L819,373.6L818.2,376.3L817.8,380.6L816.9,385.3L816.2,385.9L812.1,385.4L810.9,387.9L808.6,388.8L806,387.2L804,383.5L803.8,380.5L806.1,378.4L804.6,376.3L801.1,374.3L800.4,372.2L794.5,367.8L793.4,364.8L791.6,364.5L790.8,365.9L788.7,366L789.2,364.6L792.1,363.2L795.9,363.7L798.5,362L797.7,367L798.6,367.9L802.5,364.2Z"></path>
  <path fill="#7f0000" d="M788.7,366L786.6,367.1L784.4,367.3L778.1,359.7L768,356.7L764.2,358.6L759.6,358.6L758.6,355.4L772.9,332.4L784.4,333L784.6,336.5L785.9,336.6L787.5,338.4L788.8,338L789.7,339.6L791,339L792.5,340.6L793.2,338.6L798.2,337.6L798.8,341.5L799.8,341.6L802.8,346.4L802.8,351.2L803.9,351L805.3,352.8L805.4,363.6L802.5,364.2L798.6,367.9L797.7,367L798.5,362L795.9,363.7L792.1,363.2L789.2,364.6Z"></path>
  <path fill="#7f0000" d="M635.3,592.6L633.6,594.1L632.9,596.4L633,602.8L634.9,602L637.6,603.8L638,605.5L640.1,605.9L645.8,602.8L649.8,603.4L655,599.9L656.2,604.6L659.6,606.2L658.8,608.6L661.4,608.4L664,610.5L663.5,611L661,609.4L660.1,611.3L654.1,615L655,616.5L656.8,615.5L657.8,616.1L655,618L656,619.8L657.9,619.8L659.7,621.2L661.8,628.9L658.6,629.4L659.4,625.8L658.4,625.6L653.3,627.4L649.9,630.4L646.2,628.9L643.6,629.3L640.8,628.3L639,628.9L635.2,629.3L631.5,631.1L625.5,630.8L625.2,627.9L627.6,626.2L628.4,621.8L626.9,622.2L625.4,617.5L624.1,615.6L621.6,614.7L622.8,611.9L621.4,610.2L624.3,611.3L622.9,609.8L625.8,605.6L625.1,601.6L625.9,600.1L627.8,599.5L627.7,598.5L630.3,597.2L633.7,591.4Z"></path>
  <path fill="#7f0000" d="M599.3,612.9L604.2,615.2L603.1,615.9L604.4,617.1L604.8,619.7L601.6,619.3L601.4,618L597.7,617.8L596.9,616.9L596,618.4L592.9,617.1L592.7,615L598.7,613.8Z"></path>
  <path fill="#7f0000" d="M798.2,337.6L801.5,335L804.7,335.7L804.9,333.4L806,333.5L807.5,329.9L808.5,330.1L811.1,326L812.7,325.9L813.6,323.5L815.7,322.4L815.1,327.9L814.5,329.1L815.7,332.1L815.1,333.2L816.4,336.8L815.6,338.6L817.5,340.5L816.2,346.8L813.8,350.8L815.7,354.1L818.1,354.1L816.9,358.1L817.1,361L820.5,363.1L818.6,363.3L813.1,367.4L809,367.9L805.4,363.6L805.3,352.8L803.9,351L802.8,351.2L802.8,346.4L799.8,341.6L798.8,341.5Z"></path>
  <path fill="#7f0000" d="M613.3,577.2L613,577L613,577.1L612.9,577.3L606.1,580.9L607.1,578.7L606.3,578L604,579L600.9,577.3L597.4,578.6L595.4,577.9L591.7,579.5L591,578.2L588.5,579.1L585.9,582.8L584.9,582.9L584.9,580.7L590,576.9L595.7,575.2L604.7,575.5L606.4,575.8L609.9,574.7L610.4,575.9L615.3,574.9Z"></path>
  <path fill="#7f0000" d="M723.7,305L724.8,303.9L726.2,306.5L724.8,308.5Z"></path>
  <path fill="#7f0000" d="M657.3,348.1L660.1,349.6L659.1,351L657.5,351.4ZM653.3,352.3L654.5,352.7L655.5,350.8L656,352.3L658.7,354.4L659,356L656.9,356.7L653.8,355.9L654.5,354.9ZM652,351.2L653.7,351.7L652.6,354.8Z"></path>
  <path fill="#7f0000" d="M793.7,269.4L795.2,270.3L795.7,274.1L793.6,274.3L791.2,272.7L790.1,270.4L791.9,269.2L793.8,271.9Z"></path>
  <path fill="#7f0000" d="M625,571L627.5,570.1L629.2,571.1L631.9,570.1L633.5,571.2L629.5,573.2L628.2,574.9L626.5,575.5L626.6,577.9L623.6,576.1L624.1,575.3L622.6,572.8Z"></path>
  <path fill="#7f0000" d="M584.5,650.8L586.5,652.2L583.1,651.2ZM639,628.9L637.8,629.5L640.2,630.8L639.8,632.8L637.3,637.1L632.6,641.8L632.6,645.2L631.9,646.8L629.2,646.3L626.4,647.6L626.9,645.8L625.7,644.9L626.8,643.9L626.2,640.7L625.3,643.2L622.7,643.2L621.2,640L623,638.1L621.9,637.8L622.9,636.1L622,634.2L625.5,630.8L631.5,631.1L635.2,629.3Z"></path>
  <path fill="#7f0000" d="M735.9,326.9L736.5,321.5L738.3,316.8L735.7,311.5L735.9,309.2L737.4,306.9L736.3,302.9L741.9,300.7L747.5,302.1L745.1,305.1L740.6,307.2L741.9,307.8L747.1,304.1L757.3,299L759.1,297.9L762,297.1L764.7,293.2L765.6,310.1L765.5,329L743,328.1L740.1,328.8L735.5,327.4Z"></path>
  <path fill="#7f0000" d="M652.9,384.5L656.3,385.3L658.3,386.8L657.5,387.9L658,393L657.6,394.1L655.7,393.2L655.1,394.4L655,390.8L654.5,393L653.3,390.3L651.9,392.4L651.2,390.8L649.8,391.1L650.8,388.3L649.5,388.4L648.6,385.1L649.6,385.2L650.6,387.6Z"></path>
  <path fill="#7f0000" d="M817.8,380.6L820.9,381.1L819.8,386.7L819.1,388.2L816.2,385.9L816.9,385.3Z"></path>
  <path fill="#7f0000" d="M652.1,328L652.6,327.4L653.9,329.9L652.2,330.1ZM655.4,320.1L655.4,321.7L653.8,323.8L654.3,325.7L653,325.2L652.8,326.7L650.4,327L649.4,322.8L649.9,318.8L651.8,319.9L654.5,319.2Z"></path>
  <path fill="#7f0000" d="M790.1,270.4L791.2,272.7L786.3,280.5L786.2,284.5L787.1,286.2L785.8,288.1L788.3,289L787.3,290L788.1,292.4L785.5,292.9L782,291.5L779.6,291.6L779.6,290.3L776.4,286.8L784.6,282.4L785.4,277.5Z"></path>
  <path fill="#7f0000" d="M583.8,611L581.7,612.4L576.4,612.5L578,609.8L581.3,610.5L583.5,609.7Z"></path>
  <path fill="#7f0000" d="M788.1,292.4L787.3,290L788.3,289L785.8,288.1L787.1,286.2L786.2,284.5L786.3,280.5L791.2,272.7L793.6,274.3L795.7,274.1L795.2,270.3L797.5,270.2L800.3,265.8L801.4,255.1L800.7,251.8L811.3,260.7L812.1,265.1L815.5,271L816,273.6L815.2,275.1L818.1,279.2L818.1,284.3L816.3,288.3L816,292.3L814,292.9L814,294.7L810.5,297L807.9,300.6L807.2,303.2L805.7,302.3L805.2,299.4L799.4,299.1L798.8,297.2L795.6,296.6L793,294.8L792.8,293.3Z"></path>
  <path fill="#7f0000" d="M679.2,349.2L680.1,347.4L678.9,346.6L680.6,342.7L682.6,342.4L685.5,344.3L685.8,345.2L686.7,348.8L686.1,350.5L685.1,353.2L684,353.7L683.8,357.4L682.8,359.1L682.1,359.1L681.3,358.9L682.4,357.8L682.2,352.1L680.8,351.8Z"></path>
  <path fill="#7f0000" d="M679.2,349.2L676.8,351.3L673.9,352L672.5,347.1L673.2,346.1L674.3,343.1L677.1,338.8L678.4,338.4L680.6,342.7L678.9,346.6L680.1,347.4Z"></path>
  <path fill="#7f0000" d="M698.4,582L698.1,578.2L694.5,576.5L694.3,574.5L694.2,573.1L700.1,571.1L703.4,571.6L703.4,578.3Z"></path>
  <path fill="#7f0000" d="M625,317.1L627,317.6L628.2,315.5L630.2,317L633.1,315.2L635.1,316L636.9,314.5L638.2,315.4L640.4,312.7L646.9,319.2L648.6,327.9L648.1,327.1L646.1,330.5L643.7,329.7L640.7,330.5L639.2,329.7L637.5,326.5L635.3,324.4L635,322.9L633.5,323L632.7,324.9L627.4,325.4L624.4,329.9L623.9,328.8L625.4,327.2L625.9,323.3L622.9,320.9L623.6,316.8Z"></path>
  <path fill="#7f0000" d="M241.7,630L242.1,632.2L237.5,628.7L239,628.2ZM248.9,631.9L248,632.9L243.2,629.4Z"></path>
  <path fill="#b30000" d="M752.1,681.7L748.2,685.8L746.5,685.7ZM754,680.2L756,679.1L754.7,680.8L750.7,683.9Z"></path>
  <path fill="#7f0000" d="M696.2,362.2L698,362.4L700.1,363.7L699.3,364.5L696.7,364.4ZM667.2,370.7L672.3,367L673.5,365.3L674,364.3L676.4,360.8L678.7,362.7L680.3,363L680.3,364.4L683.6,367.5L683.4,365.6L685,365.4L690,366.7L691.8,365.8L691.9,366L691.9,366.2L693.3,369.4L691.2,371.6L690.6,374L691.5,376.3L693.5,376.6L692.3,379.8L691.8,380.4L689.9,384.7L687.3,386.8L683.8,384.3L679,382.4L676.7,384L675.4,383.6L671.3,388.1L669.9,387.7L670,384.2L671.5,383.5L671.9,380.7L668.4,380.8L670,379.5L670.3,377L669.4,373.6L667.3,372.7Z"></path>
  <path fill="#7f0000" d="M755.9,460.8L757.5,456.1L760.5,452.9L760.1,454.8L758.1,456.5L758.2,459.2L757,462Z"></path>
  <path fill="#7f0000" d="M818.2,376.3L819,373.6L821.5,374.4L821.6,370.7L823.1,369.9L825.7,372.6L827.2,370.4L830.5,371.2L831.9,372.6L830.7,373.8L830.9,376.7L829.3,377.8L830.5,378.6L829.9,382L833.5,381.3L832.9,382.8L833.7,384.3L828.6,389.2L825.1,390.9L826.5,389.1L824.1,390.5L823.1,389.3L819.7,387.5L820.9,381.1L817.8,380.6Z"></path>
  <path fill="#7f0000" d="M703.1,282.7L701.9,284.4L702.5,287.4L701.4,287L698.7,288.2L697.1,291.7L696.4,291.2L696.9,285.1L698.4,282.4L697.4,280.1L699.5,276.2L702.1,275.5L701.3,278.5Z"></path>
  <path fill="#7f0000" d="M796.6,428.4L796.5,428.4L796.8,427.8L795.7,426.8L792.4,427.5L789,423.5L785.3,422.9L780.9,422L783.6,415L783.4,413.3L786.4,412.4L788.4,413.5L788.9,412.5L790.5,413.6L792.1,412.9L795.6,414.7L798.6,413.1L798.9,420.6L798.8,425.2Z"></path>
  <path fill="#7f0000" d="M573.2,425.6L572.9,426.9L570.7,427.9L570.6,426.6ZM598.3,393.5L598.5,394.8L596.9,397.5L596.9,395.7ZM596.2,389.1L598.2,387.5L598.2,388.6ZM576.3,389.8L584.8,378.6L582.7,382.9L577.9,389.8L577.1,391.6L582.7,383.2L581.8,385.8L585,379.7L584.7,383.3L586.5,377.5L588.3,373.7L591.2,368.6L588.9,378.4L590.2,381L592,379.1L593.6,379L591.7,381.7L591.2,384.2L593.4,381.2L595,381.4L595,386.5L596.9,384L597.4,384.6L596.4,387.2L594.4,388.7L593.3,393.7L596.2,390.8L600,388.3L602,389L600.8,391.5L598,392.2L595.3,394.9L594.6,396.5L597.5,393L596.1,398.9L599.3,393.9L602.4,390.2L601.8,397.5L599.6,402.9L598.3,404.9L598.7,411.5L597.3,415.4L594.6,419.3L595.6,419.5L594.6,421.6L596.6,421.7L597.8,423.7L596.6,425.2L598,426.2L596.6,428L598.5,427.5L599.2,430.8L600.5,430.5L599.6,433.5L600.3,435.2L599.3,435.6L597.7,434.2L594.4,436.9L591.9,437.8L591,436.2L588.3,437L587.3,435.3L585.5,436.2L584,435.4L585,433L584.5,432L583.2,433.6L583.2,435.5L581.3,433.6L578.3,433.5L577.4,432.3L578.5,430.7L576,432L576.7,429.2L575.5,427.8L577.3,426.1L577.2,424.3L575.8,423L573.4,425L569.9,426.2L570.3,425.4L573.8,423.2L571.9,423.2L571.8,421.6L567,425.7L567.5,423.4L565.8,422.2L563.4,422.3L563.1,421.4L559.4,422.4L559.3,421.6L553,424.8L547.5,428.9L547.5,427.7L543.2,429.5L548.9,425.9L548.1,425.4L545.4,427.5L540.4,429.1L540.7,428.2L547.8,423.1L548.2,421.4L545.3,422.7L548.9,419.2L551.7,417.3L550.9,417L557.6,411L562.8,407.1L561.5,407.4L567.3,402.9L565.6,403.2L570.6,398L565.6,402.7L571.2,396.9L571.1,396.3Z"></path>
  <path fill="#7f0000" d="M661.4,352L662.8,352.5L661.7,348.9L664.5,345.9L667,346.6L668,345.7L670.3,346.2L672,345.5L673.9,352L676.8,351.3L679.2,349.2L680.8,351.8L682.2,352.1L682.4,357.8L680.1,360.8L680.3,363L678.7,362.7L676.4,360.8L674,364.3L671.5,363.6L670,364L666.9,363.4L666.8,361.5L663.2,359.9L662,359.4L663.5,357.3L660.3,355.6L659,356L659.9,353.7L660.8,354Z"></path>
  <path fill="#7f0000" d="M723.1,330.2L724.6,324L725,328L723.8,331.1ZM712.5,330.6L713.2,328.9L715.4,328L712.5,332.2ZM703.8,323.2L704.9,322.6L706.8,324.1L705.9,326.2L706.5,329.6L708.5,328.1L709.1,329.3L706.8,331.5L708.7,332.5L711.5,330.8L712.3,332.9L714.7,329.2L716.4,329.4L715.1,330.6L715.5,332L717,330.7L716.4,332.7L720.1,331.7L718.1,334.2L718.6,335.4L716.7,335.4L715.2,336.6L713.9,334.7L715.3,332.2L714.7,331.3L713.6,333.3L713.8,336.4L709.2,338.8L708.1,337.1L705.8,336.2L704.6,331.4L704,328.2L705.2,325.8L704.9,323.8Z"></path>
  <path fill="#7f0000" d="M575.4,599.9L577.1,605.5L578,605.2L580.2,604.9L578,607.8L578,609.8L576.4,612.5L572.1,613.1L568.9,612.3L569.2,607.5L573.1,606.2L572.9,605.2L569.1,603.8L570.4,603.4L569.9,601.7Z"></path>
  <path fill="#7f0000" d="M765.1,459.7L764.2,458L765.1,454.8L763.6,455L762.5,453.6L765.5,450L766.5,446.9L768.9,445.3L768.5,443.9L769.8,442.3L769.3,440.1L773.5,439L777.1,439L778.5,440.3L780.3,439.4L782.3,439.9L781.2,441.6L782.8,441.3L783.3,443.5L783.4,445.9L782.5,446.9L779.9,445.8L778.5,448.1L778.4,449.7L776.5,448.4L773.2,449.3L771.7,453.3L772.7,456.9L770.4,457L766.9,459.3Z"></path>
  <path fill="#7f0000" d="M685.6,581L686.1,582.2L684.8,584L685.8,586L688.1,586.6L689,585.8L693.8,587L691.3,588.9L688.4,593.9L685,594.5L682.4,593.1L681.7,589.5L680.6,588.7L679,589.4L678,587.7L676.2,589L673.1,588.7L672.6,586.4L674.4,583.9L672.4,583.7L673.6,579.9L678.9,579.5L680,581.9L680.2,580.2L684.5,579.4Z"></path>
  <path fill="#7f0000" d="M619.8,573.6L622.6,572.8L625,577.2L620.3,579.1L619.2,580.5L617.2,580.4L617.2,579.3L622.7,576.8L620.8,576.2L620.3,574.9L618,575.4Z"></path>
  <path fill="#7f0000" d="M596.4,601.2L592.7,603.8L591.2,603.8L589.7,607.5L588.6,607.2L586.7,608.9L587.3,610.1L585.8,611.6L583.8,611L583.5,609.7L581.3,610.5L578,609.8L578,607.8L580.2,604.9L587.1,601.5L592,600.2L593.1,601.3Z"></path>
  <path fill="#7f0000" d="M687.1,344.3L689.4,342.2L689.5,339.6L691.8,338.5L692.8,339.5L691.7,341.1L690.9,346.6L694.1,346.2L696.8,344.9L696.2,346.9L690.1,349.5L691.6,351L689.2,351.3L689,349L690,347.9L687.7,346.5Z"></path>
  <path fill="#7f0000" d="M689.5,339.6L689.4,342.2L687.2,344.3L685.8,345.2L685.5,344.3L682.6,342.4L683.7,339.4L681.7,334.8L682.4,331.7L683.9,330.2L685.1,332.1L688.8,334.3L689.2,336.4Z"></path>
  <path fill="#7f0000" d="M616,385.2L618.4,383.8L619.5,384.2L619.8,387.7L619.5,393.8L616.3,396.5L615.2,399.1L613.2,397.3L612.4,395.5L610.4,398.3L609.2,395.9L611.4,394.3L613.5,395L612,392.9L613.6,392L613.1,390.4L615,387.5L614.1,386.9Z"></path>
  <path fill="#7f0000" d="M221.3,289.7L220,287.7L217.3,286.5L211.7,295.1L212.1,297.6L208.8,302.3L207.9,308.4L212.6,308.9L213,310.9L210.8,311.1L209.8,311L208.9,313.1L209.4,320L212.2,318.8L212.5,321.3L217.3,327.1L216.4,329.2L217.9,331L215.8,332.7L214.4,332.1L214.2,334.8L212.2,333.6L210.6,334.4L211,331.7L208.8,328.8L207.1,329L205,327.5L203.8,327.9L200.2,326.3L200.8,323.9L195.2,323.6L194.3,321.8L199.6,320.8L199.6,319.8L197.2,318.8L199.3,317.4L200.8,318.1L201.7,320.3L203.7,321.1L204.5,313.6L207.2,313.4L206.8,312.2L208.5,309.6L206.3,308.6L204.5,311.2L204.2,309.6L202.7,308.3L201.2,310.4L199.5,309.8L198.1,311L194.7,311.1L193.1,310L195,310L193,308.7L194.9,308.6L193.5,307.3L192.7,304.7L190.5,304.8L188.5,302.9L187.7,299.8L188.4,299.8L183.8,295.4L180.7,289.6L179.1,289.3L178.8,286.1L177.2,285L177.2,282.6L175.3,281.6L170.2,282L165.5,279.5L161.5,279.3L161.7,277.5L159.6,275.9L158.4,277.6L158.7,274L156.8,272.6L156.2,270.6L159,267.7L166.8,265.9L171.4,263.7L176.3,263.3L181.5,261.1L189.6,260.7L193.3,260.8L195.8,262.2L198.7,261.5L200.3,263L200.8,260.7L197.6,259.9L196.9,255.8L202.9,251.3L202.9,255.1L204.3,256.4L204.4,252.5L207.9,250.2L209.1,252.3L207.8,255.7L207.9,259L212,258.6L213.3,257.2L214.9,257.8L216,256.1L217.2,256.6L219.3,259.3L218.1,260.4L218.2,263.5L223.5,268.8L226.3,272.9L228.9,273.1L229.6,275.4L233.2,272.3L237.8,272.9L236.6,280.5L237.9,281.1L238.9,283.3L236,284.1L234.9,285.8L232.4,285L229.7,286.6L228.6,284.9L229.4,283.5L225.4,284L225.7,284.9Z"></path>
  <path fill="#7f0000" d="M248.7,242L245,238.7L242.7,239.2L241.7,237.8L236.8,236.9L235.7,239L234.5,239L231.9,235.4L227.1,236.8L225.5,238.9L222.5,238L221.6,239.4L220.3,238.5L220.2,234.5L217.4,232.8L219.5,228.6L253.8,240.3L252,242.8ZM735.4,263.6L732.7,266.5L730.1,266.6L728.5,268.1L727.4,271.9L726.4,271.8L724.6,274.3L719.3,273.7L718.4,272.9L718.3,275.4L715,277.5L712.8,279.3L711.3,278.9L708.3,280.5L707.2,278.8L709.1,275L708.8,274.2L705.5,271.3L706.4,270.1L708.2,270.6L709,268.3L711.4,267.2L711.6,264.4L713.1,261.7L711.1,254.8L709.4,255.3L708.7,253.5L706.2,252.2L704.3,248.2L705.2,247.3L705,242.5L706.2,240.3L740.5,228.6L741.9,236.3L738.3,239.3L738.7,240.9L741.8,243.9L741.9,247L740,251.4L739.8,254.3L733.8,259.7L734.7,260.9L733.4,262.8Z"></path>
  <path fill="#7f0000" d="M734.6,300.2L734.6,300.2L734.6,300.2ZM730,299.5L731.8,299.3L732.7,299.5L732.4,300.2L736,301.1L735.5,299.5L741.7,300.5L736.6,302.7L735.4,302.2L730.6,300.9Z"></path>
  <path fill="#7f0000" d="M686.1,350.5L686.7,351.4L688.9,351L688.2,352.1L688.8,354.2L692.6,354.7L695.2,352.2L698.1,351.8L700.2,350.4L701.2,347.2L702.5,347.9L705.7,343.3L707.5,342.3L706,346L708,347.3L709.4,345.8L713.7,349.1L713.2,350.1L710.6,348.3L706.9,349.1L697.8,358.6L692.4,359.9L690.5,362.7L691.8,365.8L690,366.7L685,365.4L685.5,363.6L684.1,362L686.3,361.1L684.4,360.2L685.6,358.5L683.8,357.4L684,353.7L685.1,353.2ZM693.7,354.7L693.7,354.7L693.7,354.7ZM699.9,355.8L699.9,355.8L699.9,355.8ZM700.9,363.1L703,362.7L707.1,364.2L707.1,367.1L704.4,366.2L701,366.3ZM712.8,350.3L714.7,351.7L717.3,352.1L712.7,358.1L711.7,355.7L712.7,354.7Z"></path>
  <path fill="#7f0000" d="M796.5,428.4L796.6,428.4L796.5,428.4ZM794.4,433.9L793,443.8L789.2,441.9L785.9,445.1L785.4,443.7L783.3,443.5L782.8,441.3L781.2,441.6L782.3,439.9L780.3,439.4L778.5,440.3L777.1,439L776.7,437.7L778.4,436L777.7,433L779.3,433.1L779.4,431L782.4,429.2L782.9,425.5L785.3,422.9L789,423.5L792.4,427.5L795.7,426.8L796.8,427.8L795.1,431.3Z"></path>
  <path fill="#7f0000" d="M735.4,263.6L735.6,265.2L736,267.3L739.1,268.5L739.7,273.5L734.9,281.6L732.8,286.4L732.6,289.7L728.8,291.2L724.9,285.8L718.7,285.9L716,283.5L715,282.6L715,277.5L718.3,275.4L718.4,272.9L719.3,273.7L724.6,274.3L726.4,271.8L727.4,271.9L728.5,268.1L730.1,266.6L732.7,266.5Z"></path>
  <path fill="#7f0000" d="M252.5,419.7L253.2,420.7L251.2,422.6L246.3,422.9L244.4,421.7L244.7,420.3L246.8,419.2L249.5,419.3L248,417.5L250.1,416.1L252.9,418ZM258,425.8L257.1,427.8L254.8,427.3L254.9,425.5L251.8,424.7L253.4,422.6L255.8,423L256.1,424.7ZM285.8,430.8L281.9,435.4L277.7,436.3L276.7,435.3L273.5,437.2L271,437.4L269.9,438.8L267.6,438.7L266.4,437.7L266.4,435.9L263.5,434.7L261.9,432L260.1,431L257.3,430.7L257.7,428.5L260.4,427.9L256,421.4L253.9,421.5L254.4,420.4L253.1,418.5L260.3,421.5L263.8,428.3L264.6,427.5L268.8,427.9L268.4,429.4L271.7,431.3L274.8,432L278.9,431.3L282.1,429.1L284.4,429.1L283.7,430.5ZM297.7,425.9L296.2,431.4L296.9,434.4L296,435.5L293.3,433.8L289.8,433.9L289.8,429.9L287.1,427.4L286.9,430L284.6,428.3L287.6,425.9L289.4,426.7L290.4,426L291.2,428L295.3,426.7L296.7,425.3Z"></path>
  <path fill="#7f0000" d="M610.3,585.5L608.6,586.4L606.3,585.8L610.1,583.8L612.8,584.1Z"></path>
  <path fill="#7f0000" d="M741.7,300.5L735.5,299.5L732.7,299.5L731.8,299.3L732.7,296.1L728.8,291.2L732.6,289.7L735.2,295.4L738.1,292.4L739.8,293.6L740.4,295.7L742.6,297.4Z"></path>
  <path fill="#7f0000" d="M816,292.3L816.3,288.3L818.1,284.3L818.1,279.2L815.2,275.1L816,273.6L815.5,271L819.1,273.8L829.1,272.5L831,270.2L834.2,274.7L839.9,278L837.4,284.4L836.1,284.5L831.8,298.6L828.8,298.9L823.7,295.1L819,297.4L817.5,299.1L816.4,297.8Z"></path>
  <path fill="#7f0000" d="M259.1,291.8L256.1,286.3L256.5,283.5L254.6,281.9L255.8,280.2L254.6,276.1L252.9,275L252.7,271.5L254.4,269.9L254,268.6L255.3,264.7L257,265.7L255.8,267.8L256.6,269.1L255.9,270.8L257.4,274.6L258.4,272.5L260.3,271.6L259.1,270.7L261,268.1L262.8,270.4L264.2,272.6L262.1,276.4L264,276.9L264.3,278.6L262.5,281.5L261.3,289.6Z"></path>
  <path fill="#7f0000" d="M264.2,406.7L263,406.5L262.1,404.2L260.3,403.8L259.4,398.8L264.4,399L265,396L268.8,398.8L272.2,399.7L272.1,402.9L273.8,402L274.6,403.8L276.6,405L278.4,404.7L277.1,407.3L274.3,406L271.9,407L266.6,403.5L265,403.8Z"></path>
  <path fill="#7f0000" d="M260.3,403.8L262.1,404.2L263,406.5L264.2,406.7L260.7,411.1L256.1,413.1L254.7,412.8L252.7,409.3L251.1,409.4L249.8,407.6L250.7,406.5L255.3,406.3L256.9,404.7L258.8,404.9Z"></path>
  <path fill="#b30000" d="M735.6,265.2L739.8,263L740.2,265L738.9,265.9L739.1,268.5L736,267.3Z"></path>
  <path fill="#7f0000" d="M682.9,248.2L681.5,252.1L684.9,257.1L696,253.8L696.4,255L694.1,258.8L695.4,261.3L696.9,262.3L693.8,262.3L693.3,266L690.3,267.7L689.5,269.3L689,266.3L688.2,267.9L686.4,267.3L685.5,263.3L685.2,264.6L681.4,264.5L681.3,269.1L684.5,272.7L680.9,275.8L681.3,277.5L679.6,278.4L679.4,279.8L677,279L674.9,279.7L672.9,278.9L674.3,277L673.8,276L671.9,276.6L667.5,273.2L668.1,272L666.7,270.1L667,267.8L668.3,265.1L668.6,262.5L666.5,261.3L666.6,259.2L665.2,257.8L666.4,254.8L665.1,254.3L682.9,248.2ZM259.1,291.8L261.3,289.6L262.5,281.5L264.3,278.6L264,276.9L262.1,276.4L264.2,272.6L262.8,270.4L261.1,265.4L259.1,263.5L261.2,262.7L261.8,259.9L264.5,260.1L264.8,259L267.7,260L267.6,259.2L270.7,258L271.9,251.4L277.1,248.2L294.9,254.3L293.9,256.9L295.1,258L298.2,255.4L298.6,257.8L303.2,259.2L302.1,262L302.6,263.4L301.9,267.4L302.7,268.1L302.9,275.6L302.1,278.7L298.5,278.6L297.4,283.5L295.7,282.5L295.4,284.5L297.5,289.5L296.3,288.8L293.7,291.2L285.6,294.5L287.2,296L285.3,297.4L285.7,301.6L281.1,305L280.9,307.8L277.7,307.6L277.3,305.8L273.3,305.1L272.6,303.4L274.1,299.7L269.2,297.7L267.7,298.1L268.6,296.2L267.7,292L267,293.4L265.1,292.8L262,293.5L260.6,291.9Z"></path>
  <path fill="#7f0000" d="M176.9,370.4L175.3,368.4L176,367.2L175.1,365.6L173.8,366L174.6,363.1L175.4,364L178.7,363.8L180.8,360.6L183.7,360.1L185.8,357.5L185.9,355.6L183.8,353.6L184.8,351.7L182.2,349L182.4,348.2L188.5,348.7L188.2,346.3L190.1,346.4L190.6,344.8L194.6,347.6L193.5,349.7L196.7,348.7L197.5,350.3L195.4,352.2L195.8,353.1L193.1,354L192.8,355.7L193.9,356.8L191.3,359.8L190,359L190,357.1L188.7,356.8L187.3,361.1L186.4,361.2L183.1,366.1L181.6,366.8L180.9,369.4L179.8,368.7L178.6,370.6Z"></path>
  <path fill="#7f0000" d="M730,299.5L730.6,300.9L725.5,298.9L726.8,297.1Z"></path>
  <path fill="#7f0000" d="M654.3,325.7L653.8,323.8L655.4,321.7L655.4,320.1L659.5,318.6L660.9,321.6L658.9,324.6L658.2,330L659.1,332.1L656.9,331.9L654.8,330.5L654.4,328.8L656.8,326.8L656.1,325.6Z"></path>
  <path fill="#7f0000" d="M660.9,321.6L659.5,318.6L661.1,313.4L663.5,313.6L667.3,309.6L668.7,312.5L671.5,311.4L671.6,313.1L674.1,313.9L672,323.6L672,326.4L673,328L670.7,328.8L669.4,327.2L665.7,327.8L665.3,323.3L663.2,323.3L662,321.2Z"></path>
  <path fill="#7f0000" d="M660.9,321.6L662,321.2L663.2,323.3L665.3,323.3L665.7,327.8L664.4,329.2L662.8,328.9L661.6,331.9L659.1,332.1L658.2,330L658.9,324.6Z"></path>
  <path fill="#7f0000" d="M780.8,453.8L778.5,448.1L779.9,445.8L782.5,446.9L783.4,445.9L783.3,443.5L785.4,443.7L785.9,445.1L789.2,441.9L793,443.8L789,448.4Z"></path>
  <path fill="#7f0000" d="M682.6,342.4L680.6,342.7L678.4,338.4L678.2,337L679.7,335.9L679.1,332.6L680.4,330.7L682.4,331.7L681.7,334.8L683.7,339.4Z"></path>
  <path fill="#7f0000" d="M682.1,359.1L682.8,359.1L682.1,359.1Z"></path>
  <path fill="#7f0000" d="M734.7,370L733.5,367.9L730.6,367.1L728.9,363.3L726.6,363L730.6,353.8L734,352.7L735.5,348.5L738.6,344.4L737,341.3L732.9,340.8L730.9,336.6L732.1,332.7L733.4,332.4L734.4,327.8L735.5,327.4L740.1,328.8L743,328.1L765.5,329L771.6,329.3L771.4,332.3L772.9,332.4L758.6,355.4L759.6,358.6L760.4,361L758.4,362.8L756.5,367.1L753.9,367.9L752.3,371.5L747.1,373L746.3,371.4L742.3,370.4Z"></path>
  <path fill="#7f0000" d="M851.9,235.8L853.6,233L859,229.7L860.2,230.5L859.7,232.9L862.5,231.6L882.2,239L885.1,246.9L884.7,252.2L879.5,256.4L877.3,255.6L873.7,252L868.5,255.2L865.2,253.5L862.9,246.9L860.5,242L853.9,237L853.2,238.1Z"></path>
  <path fill="#7f0000" d="M271.5,317.1L275.5,315L276.5,312L277.7,310.6L279.6,310.4L284.5,319.8L283.8,323.8L282.2,324.6L281.6,330.3L283.5,332.2L285.6,331.1L289.2,333L287.4,339.9L285.1,340.4L284.5,341.7L285.7,349.4L285,352.3L283.3,353.9L283.7,358.6L286.1,363L288.8,365L288.7,370.2L282.4,369.5L282.6,373.4L284.3,375.5L282.6,378.7L281.3,379.5L279.4,374.4L278.1,372.9L275,371.7L274.2,369.2L271.7,367.7L271.9,363.8L269.5,363.1L267.6,364.7L264.1,361.9L262.5,359.6L261.8,355.3L258.1,350L260.4,339.9L259.7,329.5L263.6,326.9L264.5,327.1L266.4,322.8L267.3,316.8L268.3,316.3Z"></path>
  <path fill="#7f0000" d="M702.5,336.8L701.4,332.5L703.3,331.1L704.6,331.4L705.8,336.2L704.2,337.2Z"></path>
  <path fill="#7f0000" d="M766.5,446.9L765,446.2L762.2,447.4L759,446.6L759.3,445.3L757.6,443.3L759.9,442.2L759.2,441.3L765.5,425.6L763.3,424.3L762.5,424.9L737.3,418.3L739.1,413.5L756.2,400.4L757.2,400.8L759.1,399.3L761.7,395.5L764.2,395.8L764.5,393L772.5,395.2L774.9,398.1L773.1,405.1L773.2,408.7L771.8,411.5L772.2,417.7L773.5,419.5L773,420.7L774.3,421.7L772.8,423L773.4,424.6L775.6,425.7L775.8,428.8L779.4,431L779.3,433.1L777.7,433L778.4,436L776.7,437.7L777.1,439L773.5,439L769.3,440.1L769.8,442.3L768.5,443.9L768.9,445.3Z"></path>
  <path fill="#7f0000" d="M711.7,396.2L713.1,395.4L717.6,396.7L720.4,395.7L721.5,396.6L720.1,400.8L720.4,403.7L722.7,404L722.9,407.8L724.1,410L723.3,414.4L724.3,419.5L727.3,420.8L722.1,432.4L722.3,427.1L720.7,422.4L719.1,420.2L715.2,419L712.3,415.6L710.7,408.6L706.4,404.4L706.5,403L709.2,402.1L710.4,397.7Z"></path>
  <path fill="#7f0000" d="M739.1,413.5L737.3,418.3L762.5,424.9L763.3,424.3L765.5,425.6L759.2,441.3L759.9,442.2L757.6,443.3L759.3,445.3L759,446.6L751.1,450.3L748.6,456L749.5,457.3L745.7,453.6L740.7,452.7L738.8,450.6L735.2,451.2L736.1,452.1L734.7,451.1L740.1,440.3L735.6,438.6L735.4,434.9L728.3,431.6L732.1,422.8L728.4,421.2Z"></path>
  <path fill="#7f0000" d="M745,238.3L747.4,235.1L747,230.7L750,226L756.5,228L757.7,229.8L761.4,228.7L762.9,231.5L765.7,232.2L766.8,234.8L769.5,235.4L772.2,241L766.2,246.1L760.9,238L754.4,237.7L752.7,239.6L748.7,239.8L748,238.4L746.7,239.6ZM743.1,239.1L742,240L743.1,239.1Z"></path>
  <path fill="#7f0000" d="M545.3,582.7L545.6,593.4L549.1,598.6L554.2,603.1L557.8,603.1L559.1,603.9L566.1,600.1L567.9,600.4L569.5,595L568.9,591.8L573.8,588.5L577.8,587L579,588L577.7,593.2L578.8,593.1L578.9,597.6L577.7,595.8L575.4,599.9L569.9,601.7L570.4,603.4L569.1,603.8L572.9,605.2L573.1,606.2L569.2,607.5L568.9,612.3L566.8,611L559.3,609.2L554.9,612.8L550.6,612.9L539.7,611.3L536.4,609.8L531.6,609.6L526.3,607.3L523.7,604.5L524.7,601.1L522.3,597.7L515,592.5L512.2,589.3L510.6,589.6L511.2,587.9L506.8,584.9L506.7,583.4L505,583.3L501.8,580.3L498.7,573.5L493.3,571.5L495,577.6L500,582.2L503.3,587.5L504.1,587.2L507.4,594.3L508.7,594.2L511.3,596.6L509.8,598.6L508.6,596.6L503.1,593.4L501.8,588.8L498.3,587.6L494.2,584.8L496,584.2L496.6,582.1L491.9,578.5L487.7,569.9L494,569.1L493.8,569.8L504.2,572.7L511.8,571.9L511.7,570.5L516.5,569.9L521.1,573L522.5,575.6L526,577L528.5,573.8L531,573.7L537.6,579.4L539.5,582.6Z"></path>
  <path fill="#7f0000" d="M155.3,411.6L155.1,410.9L155.3,411.6ZM150,350.7L149.6,352.3L147.8,352.6L148.4,355L149.9,355.7L146.6,360.8L141.3,361.6L137.5,365.2L138.1,364L136.8,362.5L140.2,353.9L141.3,353.8L142.9,351.5L149.7,348.8ZM155,410.5L153.2,404L150,404.1L147.2,402.3L144.9,402L143.5,398.9L143.4,394.5L141.4,392.5L140,388.1L141.4,384.5L142.6,384.1L141.8,385.4L142.3,389.2L145.6,390.2L148.1,395.4L152.9,398.2L151.8,400.5L154.6,401.2L155.5,402.9L161.9,405.5L162.2,407L161.1,409.3L159.6,408.9L160.5,410.5L159.9,415.3L157.5,411.9L156.5,413.7Z"></path>
  <path fill="#7f0000" d="M893.3,299.9L893.5,303.2L891.7,304L888.5,303.9L884.3,307.1L881.8,302.1L880.1,302.1L878.6,300L876.4,301.4L875,299.9L871.3,300.5L869.9,307.5L870,311L869.1,311.1L867.6,311.9L864.9,299.7L866.1,298L866,294.4L867.6,294L869.1,295.3L871.7,290.9L870.4,291.6L869,288.9L866.3,288.6L863,294.4L860.2,295.3L858.7,293L858,289.6L858.6,288.1L858.3,283L857,281.2L856.2,276L854,271.6L859.4,270.1L860,270.9L863.9,268.7L865.8,269.5L870,275.2L872.9,284.3L873.4,283.8L875.4,286.6L878,292.1L877.5,293.3L883.5,290L883,289L887,288.9L888.3,290.9L890.8,300.3L891.6,301.3ZM859.8,294.4L859.8,294.4L859.8,294.4ZM859.8,293.9L859.8,293.9L859.8,293.9Z"></path>
  <path fill="#7f0000" d="M859.8,293.9L859.8,293.9L859.8,293.9ZM859.8,294.4L859.8,294.4L859.8,294.4ZM858.7,293L860.2,295.3L863,294.4L866.3,288.6L869,288.9L870.4,291.6L871.7,290.9L869.1,295.3L867.6,294L866,294.4L866.1,298L864.9,299.7L864,302L860.4,299.7L857.3,300L856.5,298.2L853.7,301.4L854.3,295.9Z"></path>
  <path fill="#7f0000" d="M193.7,596.3L198.7,607.4L197,605.7L194.5,601Z"></path>
  <path fill="#7f0000" d="M764.5,393L764.8,388L761.8,382.1L756.5,367.1L758.4,362.8L760.4,361L759.6,358.6L764.2,358.6L768,356.7L778.1,359.7L784.4,367.3L786.6,367.1L787.9,371.2L785.9,376.7L786.9,380.5L784.1,386L784.4,389.1L782.3,390.3L781.4,392L780.8,397.7L785.4,400.8L782.7,402.7L783.8,404.5L781.3,404.6L780.9,406.5L779.2,408L777,408.6L773.2,408.7L773.1,405.1L774.9,398.1L772.5,395.2Z"></path>
  <path fill="#7f0000" d="M671.9,364.2L673.5,365.3L672.3,367L667.2,370.7L666.8,368.8L667.4,365.4L668.7,364.1Z"></path>
  <path fill="#7f0000" d="M692.3,379.8L691.8,380.4L692.3,379.8Z"></path>
  <path fill="#7f0000" d="M671.9,364.2L674,364.3L673.5,365.3Z"></path>
  <path fill="#fc8d59" d="M691.9,366L691.9,366.2L691.9,366Z"></path>
  <path fill="#7f0000" d="M736.6,302.7L735.4,302.2L736.6,302.7ZM732.7,299.5L735.5,299.5L736,301.1L732.4,300.2ZM734.6,300.2L734.6,300.2L734.6,300.2Z"></path>
  <path fill="#7f0000" d="M699.8,341.6L697.7,340.8L697.1,339.5L699.3,337.1L700.2,337.8L700,338.8L702.3,339.7Z"></path>
  <path fill="#fff7ec" d="M762.2,703.7L755.6,708.7L752.6,710.6L760.1,705ZM274.5,748.8L290.9,756.6L279.1,751.4L266.8,745.2ZM716.6,732.9L712.6,735.1L732.1,723.2ZM823,650.1L826,647.6L822.8,651.1L794.5,678.2L783.4,687.4L799.4,673.2L801,671.3L823.7,649.2ZM469.2,792.7L487.3,792.9L469.3,793.1ZM449.3,791.6L461.3,792.7L453.7,792.3L443,791.2ZM700.6,738.1L699.7,739L692.3,742.5ZM585.2,779.9L590.7,778.9L586.2,780.1L566.8,783.9ZM702.4,735.6L699.7,737.2L689.3,742.5ZM717.1,725.9L717.6,726L725.4,722.5L727,722.2L722.2,725.8L708.7,733.6L705,735.4L714.8,729.7L708.9,732.7L701.2,737.3L694.8,740.3L705.8,734L715.9,728.4L707.7,732.6L712.3,729.8L708.2,731.3ZM725.4,719.7L720.6,722.7L726,718.9ZM33.6,165.4L20.3,211.5L19.2,213.6L20,207.5L19.3,209L20.8,201.4L19.4,205.9L20.1,199.6L18,207.3L16.1,216.8L16.1,220.1L15.3,227L11.9,251L12.2,252.9L10.5,272.4L10.9,269.5L9.5,291L9.4,302.5L9.8,303.1L9.2,306.7L9.3,321.8L10.2,349.4L10.7,357.9L12.2,366.1L16.7,399.8L17.2,404.9L19.2,413.6L19.9,414.8L22.8,426.5L23.6,432.4L25.8,440.4L27.4,448.1L34.3,468.9L39.2,483L41.6,488.3L42.3,491.1L45.6,500L49.3,506.6L57.4,524.1L57.9,523.1L60.3,528.4L59.1,527.2L76.7,560.7L81.8,569.3L85.3,574.7L83.5,572.5L92.7,587.3L99,596.1L99.2,597.2L107,607.4L107.4,607.2L110.3,611.8L114.9,617.6L117.9,620.9L129.4,635.5L138.1,645L161.7,669L161.5,669.6L156.5,665.8L140.8,651L142.6,653.2L132.7,643.2L134.4,646.4L142.6,655.6L138.3,651.4L124.4,636.8L125.1,637.8L116,627.9L125.4,638.6L123.5,637L135.3,650L152.5,667.3L164.4,678.3L196.3,703.9L238.5,731.7L265,746.1L295.2,760L329.5,772.8L339.7,776L381.2,786.7L386.5,787.8L359.1,781.4L334.1,774.2L316.2,767.9L322.3,769.7L307.6,763.9L338.6,774.8L352.7,778.6L346.5,776.6L303.3,761.3L313.5,765.1L294,757.2L294.9,757.2L300.8,759.7L316.8,765.8L333,771.6L349.4,776.5L353.4,777.3L349.4,775.8L380.2,783.1L413.6,788.8L443.1,792L472.6,793.3L487.4,793.3L506.6,792.5L510.1,792L516.9,792L522.6,791.2L529.3,790.6L528.2,791.2L555.5,787.6L575.5,783.7L564.8,785.2L583.6,781.4L564.6,785L596.5,778.1L623.8,770.3L635.7,766.1L634,766.9L648.8,761.8L665,755.5L672.3,752L688.6,744.7L721.7,726.5L732.7,719.2L729.7,720.1L723,722.9L732.1,717L729.6,717.7L732.5,715.4L727.5,718.6L739.1,709.5L742,706.8L745.3,704.7L753.2,698L759.3,693.4L767.7,686.2L762.7,690.9L762.3,691.8L759.3,693.8L749.9,701.6L748.2,703.5L750.7,702L748,704.4L743.4,707.1L738.9,710.8L735.7,713.9L737.6,713.2L749.7,705.7L749.2,706.4L756.6,702.3L750.3,707.4L757.2,702.5L758.9,702.5L754.2,706L754,706.7L743.5,714.2L722.7,727.8L718.1,730.7L696,742.6L685.4,747.5L682.3,749.2L695.4,743.4L707.9,736.9L699,741.8L668.7,755.9L687.2,747.9L680.5,751.1L656.6,761.2L672.9,754.9L674.9,753.9L693.7,745.1L688.2,748L700.1,742.3L730,725.8L764.9,702.5L770.8,698.3L788.3,684L808.7,665.7L827.4,647.1L832.8,641.1L855.5,614.2L868.3,596.6L877.1,583.5L859.8,607.9L849.3,620.7L856.5,610.9L872.8,588L887.5,565L898.8,544.7L908.5,524L902.6,535.8L901.2,538.3L907.9,523.9L912,514.3L914.8,505.8L918.3,499.1L922,487.9L922.4,488L930.7,464.6L932.1,461.1L936,446.1L940.8,427.2L942.6,417.5L945.6,404.9L948.9,383L950.2,371.4L952.9,345.6L953.1,306.4L952.4,297.4L951.6,291.2L951.4,279.9L951.6,278.3L951.1,270.8L950,263.5L949.5,263.3L948.4,256.7L942.8,225.9L940.7,217.3L941.5,221.7L938.9,210L938.7,211.4L934.1,195.3L929.8,178.3L931,181L927.8,169.6L926.4,165.4L934.6,162.6L943,189.8L949.7,217.5L954.8,245.6L958.2,273.8L960,302.3L960,330.7L958.3,359.2L955,387.5L950,415.5L943.4,443.2L935.1,470.5L925.2,497.2L913.7,523.3L900.7,548.6L886.3,573.2L870.4,596.8L853.1,619.5L834.5,641L814.7,661.5L793.7,680.7L771.6,698.7L748.5,715.3L724.4,730.5L699.5,744.3L673.7,756.6L647.3,767.3L620.4,776.4L592.9,783.9L565,789.8L536.8,794L508.5,796.5L480,797.4L451.5,796.5L423.2,794L395,789.8L367.1,783.9L339.6,776.4L312.7,767.3L286.3,756.6L260.5,744.3L235.6,730.5L211.5,715.3L188.4,698.7L166.3,680.7L145.3,661.5L125.5,641L106.9,619.5L89.6,596.8L73.7,573.2L59.3,548.6L46.3,523.3L34.8,497.2L24.9,470.5L16.6,443.2L10,415.5L5,387.5L1.7,359.2L0,330.7L0,302.3L1.8,273.8L5.2,245.6L10.3,217.5L17,189.8L25.4,162.6ZM837.2,634.7L845.5,625.2L830.6,642.1Z"></path>
  <path fill="#fff7ec" d="M40.8,213.1L39.5,215.6L38.5,220.2L39.8,211.8Z"></path>
  <path fill="#7f0000" d="M209.3,595.2L210,597.1L208.4,595.9Z"></path>
  <path fill="#7f0000" d="M786.6,367.1L788.7,366L790.8,365.9L791.6,364.5L793.4,364.8L794.5,367.8L800.4,372.2L801.1,374.3L804.6,376.3L806.1,378.4L803.8,380.5L804,383.5L806,387.2L808.6,388.8L808.8,392.1L807.3,395.1L808.5,395.7L808.1,397.7L801.2,401.7L799.4,407.8L792.1,405.5L792.2,404.4L788.7,400.8L785.4,400.8L780.8,397.7L781.4,392L782.3,390.3L784.4,389.1L784.1,386L786.9,380.5L785.9,376.7L787.9,371.2Z"></path>
  <path fill="#7f0000" d="M663.2,359.9L666.8,361.5L666.9,363.4L670,364L667.4,365.4L667.3,367.1L666,367.9L664.3,365.6L662.9,364.9L662.6,360.4Z"></path>
  <path fill="#7f0000" d="M623.2,314.3L625,317.1L623.6,316.8L622.9,320.9L625.9,323.3L625.4,327.2L623.9,328.8L624.4,329.9L626,331.1L625.3,333.9L626.6,334.3L626.5,336.1L628.5,337L630.3,340.2L632.4,340.6L634,342.2L635.5,341.9L635.2,343.6L636.9,345.6L641.1,346L642.3,345L643.1,346.2L645.6,346.2L646.1,347.5L648.2,348L647.2,350.1L649.7,354.9L648.7,357.4L646.7,359.3L645,357L644.5,359.3L642.2,357.7L639.7,358.5L637.3,357.5L636.2,352.5L633.2,346.6L632.3,343.6L630,343.2L626.3,339.2L625.5,337.2L626,335.1L624.2,334.8L623.1,333.4L622.3,330.2L623.9,330.9L621.8,328.6L622,326.2L620.7,320.7L621.9,320.8L620.3,319.1L622.1,314L622.5,317.7L623.6,316.3Z"></path>
  <path fill="#7f0000" d="M213.8,291.8L217.3,286.5L220,287.7L221.7,290.8L221.4,292.6L217.4,296.3L217.5,297.9L215.8,298.8L212.6,306.2L212.6,308.9L207.9,308.4L208.8,302.3L212.1,297.6L211.7,295.1Z"></path>
  <path fill="#7f0000" d="M694.3,574.5L694.5,576.5L698.1,578.2L698.4,582L694.3,584.6L695.5,585.9L693.8,587L689,585.8L688.1,586.6L685.8,586L684.8,584L686.1,582.2L685.6,581L685.4,579.3L689,577.7L688.6,576.9L693.8,573.2Z"></path>
  <path fill="#7f0000" d="M596.4,601.2L596.8,605.9L597.7,610.6L599.3,612.9L598.7,613.8L592.7,615L584.6,612.2L585.8,611.6L587.3,610.1L586.7,608.9L588.6,607.2L589.7,607.5L591.2,603.8L592.7,603.8Z"></path>
  <path fill="#7f0000" d="M194.5,650.5L194.6,652.3L197.9,654.9L198.3,656.4L191.4,653.5L191.9,655.3L189.7,653.1L185.1,650.3L180.9,649.7L174.8,645.7L166.8,636.7L168.7,637.1L171.3,639L175.3,640.7L184.8,647.1L190.8,649.2L191.5,648.7ZM202,643.1L205.5,647.9L205.5,651.7L207.7,654.3L207.7,652.6L209.1,654.4L208.7,656L212.5,659.8L216.1,661.6L217.9,663.4L214,663.6L210.9,661.1L209.1,661.8L202.2,659.2L199.9,656.7L202.4,657.5L203.1,656.8L199,651.7L202.5,653.5L205,653.2L203.6,649.3L205,649.8L203.4,647.6L203.3,648.8L201.2,644.3L200.8,642.2Z"></path>
  <path fill="#7f0000" d="M741.6,634.3L742.4,635.9L740.2,640.4L730.1,647.9L731.5,642.3L730.4,642.2L717.4,648.2L709.8,649.5L709.6,642.6L718.2,635.6L722,634L722.5,634.7L724.7,635.2L725.6,637.6L733,632.3L736.7,633.9L740,631.1L741.3,632.1Z"></path>
  <path fill="#7f0000" d="M671.7,642.9L676.7,644.3L676.1,645.7L678.2,648.2L677.1,650.5L678.4,650.9L677.9,652.2L680.8,652.4L679,655.8L679.8,656.1L679,658.6L677.5,659.7L672.4,659.9L657.5,663.1L653.4,663L650.9,662.2L651.1,660.8L643.6,658.8L635.6,654.1L630.5,652.3L625.6,652.6L626.2,651.1L623.4,648.6L625.7,644.9L626.9,645.8L626.4,647.6L629.2,646.3L631.9,646.8L632.6,645.2L632.6,641.8L637.3,637.1L639.8,632.8L640.2,630.8L637.8,629.5L640.8,628.3L643.6,629.3L646.2,628.9L649.9,630.4L653.3,627.4L658.4,625.6L659.4,625.8L658.6,629.4L661.8,628.9L659,630.3L653.2,636.4L654,639.9L652.4,642L652.2,644L657.6,645.2L657.2,646.6L660.2,645.2L661.6,645.9L664.5,644.3L666.5,641.5L668.1,645.1Z"></path>
  <path fill="#7f0000" d="M217.4,232.8L220.2,234.5L220.3,238.5L221.6,239.4L222.5,238L225.5,238.9L227.1,236.8L231.9,235.4L229.2,239.2L227.6,249.6L230.8,250.8L231.4,251.9L231.1,254.8L232.3,256.2L231.2,257.7L231.9,259.3L235.2,260.5L235.6,262.8L238,262.3L237.4,265.3L239,265.4L241.4,267.6L243.8,267.1L245.2,270.8L244.9,275.8L243.2,278.9L240.5,279.2L238.9,283.3L237.9,281.1L236.6,280.5L237.8,272.9L233.2,272.3L229.6,275.4L228.9,273.1L226.3,272.9L223.5,268.8L218.2,263.5L218.1,260.4L219.3,259.3L217.2,256.6L216,256.1L214.9,257.8L213.3,257.2L212,258.6L207.9,259L207.8,255.7L209.1,252.3L207.9,250.2L208.7,248.3L211.1,247.9L212.2,246.6L214,246.7L214.7,241.3L216,240Z"></path>
  <path fill="#7f0000" d="M678.4,338.4L677.1,338.8L674.3,343.1L673.2,346.1L668,345.7L667,346.6L663.9,345.9L662.2,338.4L663.8,336.8L664.4,329.2L665.7,327.8L669.4,327.2L670.7,328.8L673,328L676,327.2L678.9,330.3L680.4,330.7L679.1,332.6L679.7,335.9L678.2,337Z"></path>
  <path fill="#7f0000" d="M621.4,610.2L622.8,611.9L621.6,614.7L615.9,611.4L612.3,615.9L614.6,617.1L612,619.1L610.8,617.6L609.6,618.7L608.3,617.8L605.1,618.7L603.1,615.9L604.2,615.2L605.8,616.3L606.8,615.3L609.4,615.4L613.8,610.9L618.7,609.8Z"></path>
  <path fill="#7f0000" d="M700.7,406.2L699.8,410.1L696.1,407.7L694.5,409.2L689.5,404.9L685.7,403.5L687.6,398.8L689.1,398.4L690.1,400.7L693.9,402.4L693.5,403.6L695.9,403L697.3,404.6L698.4,404Z"></path>
  <path fill="#7f0000" d="M195.2,544.3L195.2,549.4L193.9,547.1L194,544.5ZM191.7,534.1L191.1,535.4L189.5,534.5L188.8,535.7L187.2,533.8L183.4,531.9L180.5,527.3L179.9,524.2L180.6,524.2L184.2,529.8L186.1,532.1L189,533.5L190.1,531.9ZM192,527.6L193.3,532.1L193.7,536.2L192.3,537.3L193.2,533.3L191.4,527.3ZM157.2,504.9L171.7,496.4L172.6,499.8L175.9,509.4L176.2,514.7L174.8,515.8L177.4,522L176.8,524.2L174.6,521.4L173.6,523.1L174.4,527.1L173.4,530L175.1,532.2L174,532.6L175.5,535.4L174.4,535.7L176.3,539L173.8,537.6L173.4,535.5L169.7,529.4L169.1,523.4L169.9,520.5L167.9,514.5L164.4,512.5L161.4,507.5L162.9,511.1L162.1,512.6L160.1,510.7Z"></path>
  <path fill="#7f0000" d="M762.5,453.6L763.6,455L765.1,454.8L764.2,458L765.1,459.7L764,460.6L762.5,458.3L761.7,461.5L759,463L761.4,456Z"></path>
  <path fill="#7f0000" d="M747.5,252.2L750,252.5L749.9,253.7L745.8,254L745.9,252.5Z"></path>
  <path fill="#7f0000" d="M683.9,330.2L684.9,325.9L683.3,322.1L687.7,319L692.1,318.8L692.9,315.5L693.7,317.3L697.5,318L696.2,321.5L697.7,325.2L696.7,331L695.5,331.4L693.5,334.2L692.4,333.8L689.2,336.4L688.8,334.3L685.1,332.1Z"></path>
  <path fill="#7f0000" d="M683.3,322.1L682.8,319.7L684.2,316.7L685.9,316.6L689.2,314.6L688.9,317L690.4,317.1L692.1,318.8L687.7,319Z"></path>
  <path fill="#7f0000" d="M178,433.9L173.5,437.7L171.9,436.7L172.7,435.3L170.5,434.3L169,436.1L167.4,435.6L167.7,430.9L169,429.6L170.9,430.1L171.3,427.7L169.9,427.4L170.5,426L168.9,425.5L170,424.3L167.2,423.6L167.1,422.7L170.1,422.8L171.4,424.9L173.5,425.9L173.3,427.5L171.7,427.6L175.9,430.2L176.7,432.5L178.8,431.4ZM178.3,428.1L177,428.2L176.7,426.2ZM179.3,424.5L176.2,424L173.9,424.4L175.8,421.7L176.6,422.9L178.9,422.4ZM180.7,425.6L178.7,426.3L175.2,425ZM176.5,411L174.4,412.4L165.9,406L174.8,411.4ZM181.9,427.4L182.6,428.2L179.9,430.4L178.9,429.8L182.2,426ZM180.6,419.3L179.9,422.7L176.5,419.7ZM185.1,425.6L185.9,428.2L182.5,431.2L182.6,427.8L183.6,428.2L184.1,425.7ZM183.7,423.3L181.9,422.1L183.9,421.7ZM183.7,413L183.6,415.7L182.1,416.4L180.7,415.7L183.2,411.7ZM198.7,409.9L198.5,412.2L199.5,412.9L196.9,413.5L195.8,415.1L189.6,413.3L186.7,415.5L188.2,418.4L186.7,420.2L188.2,420.5L188,422.6L187,421.6L185.8,422.9L185.1,421.5L186.9,418.3L184.8,419.2L186.1,415.8L184.6,414.6L184.5,412.5L186.2,411.4L186.8,409.8L190.9,407.5L191,409.6L197.8,407.9Z"></path>
  <path fill="#7f0000" d="M637.2,568.4L641.3,566.8L637.6,570.2Z"></path>
  <path fill="#7f0000" d="M300.2,435.2L300.6,436.1L297.2,435.2ZM305.7,438.8L300.8,436.7L304.8,437ZM309.9,422.6L308.7,421.7L305.2,422.7L302.6,425.6L299,425.2L300.6,423.6L304.7,422.1L306.4,420.2L313.1,417.2L315.6,414.3L318.4,412.9L320.3,414.1L319.4,415.8L315.2,418.3L309.4,425.6ZM661.6,331.6L662.8,328.9L664.4,329.2L663.7,334.9L662.2,334.5L662.5,332.1ZM357.9,437L355.3,436.4L356.6,435.9ZM394.5,434.7L398.2,440.7L398.6,441.9L397.6,444.5L399,443.3L402.2,445.4L402.7,447.8L403.8,449L401.1,449.1L399,447.2L399.2,449.1L397.3,448.8L396.5,450L394.2,446.8L394.3,444.8L391,442.4L392.4,440.6L390.5,440L390.1,441.7L388.5,442L394.2,434.2ZM621,284.8L622.3,287.8L620.7,287ZM615.7,271L615.4,273.7L614.6,272.9ZM397.5,429.6L396.9,430.5L395.3,429.2ZM399.3,430.8L400.2,432.3L396.9,430.5L397.5,429.6ZM610.5,279.9L613.3,279.3L614.7,275.1L616.2,278.5L616.3,281.1L614.7,281.7L615.5,283.9L611.6,282.8ZM354.5,367.6L354.7,370.4L352,367.1ZM353.5,363.9L353.3,367.2L351.5,367L351,361.5ZM364.5,386.2L364.4,388.6L361.9,383.6ZM370.4,390.6L373.3,395.2L370.9,393.1ZM365.9,380.6L366.5,383.3L367.6,383.1L369.5,388.5L367.3,387.1L364.5,382.1L363.6,381.8L363.2,378.4L364.6,378.6ZM605.4,274.6L610,277.9L610.3,282.5L605.8,277.7L603.8,275.1ZM356.2,275.1L356.3,276.7L355.1,280.7L354.7,286.4L353.8,287.1L354.6,274.6ZM698.7,271.2L701.1,272.7L699.5,276.2L697.4,280.1L698.4,282.4L696.9,285.1L696.4,291.2L697.1,291.7L694.7,294.8L692.3,300L691.7,297.5L689.4,297.2L689,295.9L687.4,297.9L685.8,294.6L685.9,296.9L683.5,295.8L683.3,293.8L681,294.4L677.8,293.7L675.9,299.5L676.4,303.3L674.4,304L673.8,306L672.2,306L670.6,307.3L671.5,311.4L668.7,312.5L667.3,309.6L663.5,313.6L661.1,313.4L659.5,318.6L655.4,320.1L654.5,319.2L651.8,319.9L650.4,318.5L649,318.7L648.5,314.8L646.9,319.2L640.4,312.7L638.2,315.4L636.9,314.5L635.1,316L633.1,315.2L630.2,317L628.2,315.5L627,317.6L625,317.1L623.2,314.3L624.1,309.9L624.3,306.4L627,298.4L629,297.8L630.6,299.4L631.5,301.7L629.4,312.6L632.3,307.7L633.7,308.3L635.8,307.5L637.4,303.1L636,302.2L634.6,304.9L633.8,304L635.2,302.2L635,298.2L632.5,299.7L629.6,296.2L629.6,294.3L630.7,292.7L628.1,292.7L627.3,294L624.9,293.6L624.2,295.2L624,291.1L625.3,289.6L626.9,292.2L627.7,289.3L627,287.7L624.5,286.8L620.4,279.8L621.6,277.6L620.5,277L619.7,274.1L617.9,272.1L619.1,271.4L618,270.3L665.1,254.3L666.4,254.8L665.2,257.8L666.6,259.2L666.5,261.3L668.6,262.5L668.3,265.1L667,267.8L666.7,270.1L668.1,272L667.5,273.2L671.9,276.6L673.8,276L674.3,277L672.9,278.9L674.9,279.7L677,279L679.4,279.8L679.6,278.4L681.3,277.5L680.9,275.8L684.5,272.7L687.7,275.8L691.3,277.2L692.5,275.4L695.6,274.5ZM277.4,406.9L280.8,407.2L284.6,404.6L286.9,405.8L287.5,408.6L291.4,408.7L294.7,407.8L296.3,408.4L297.8,407.6L295.8,404.6L294.2,404L292.8,401L295.8,398.9L295.9,391.7L297.1,391.3L303.2,385.6L303.5,379.8L301.2,375.3L299.2,374.2L297.8,376.2L291.8,374.6L290.7,375.1L288.4,372.8L288.7,370.2L288.8,365L286.1,363L283.7,358.6L283.3,353.9L285,352.3L285.7,349.4L284.5,341.7L285.1,340.4L287.4,339.9L289.2,333L285.6,331.1L283.5,332.2L281.6,330.3L282.2,324.6L283.8,323.8L284.5,319.8L279.6,310.4L279.4,309.3L280.9,307.8L281.1,305L285.7,301.6L285.3,297.4L287.2,296L285.6,294.5L293.7,291.2L296.3,288.8L297.5,289.5L295.4,284.5L295.7,282.5L297.4,283.5L298.5,278.6L302.1,278.7L302.9,275.6L302.7,268.1L301.9,267.4L302.6,263.4L302.1,262L303.2,259.2L298.6,257.8L298.2,255.4L295.1,258L293.9,256.9L294.9,254.3L342,270.3L342,271.7L343.8,271.1L344.1,272.4L341.9,276.9L340.8,277.6L339.2,280.8L337.2,282.4L338.6,284L341.1,281.2L343.3,282.2L344.2,281.4L345.1,284.4L347.1,286.2L345.6,291L343.3,289L341.7,290.3L340.6,289.4L337.6,289L336.1,290.4L334.5,289.2L333.2,286.3L332.4,286.4L333.7,282.4L332.8,282.9L331.2,286.8L332.5,290.1L334,291.8L336.6,292.1L336.5,295.1L335.3,296.1L333.6,295.4L334.5,297.3L336.1,296.7L337.3,294.4L337.7,290.9L339.1,290.8L340.9,292.3L342.9,290.8L344.5,295.1L342.2,294L340.6,299.5L342.4,295.5L343.2,295.4L343.6,299.1L341.6,303.4L341.5,305.8L340.6,304.2L339.7,305.4L338.2,304.5L338.7,306.2L341.2,306.3L343.5,302.2L345.6,302.2L345.5,312.4L347.9,311.5L350.2,328.5L353.1,333.4L353.3,337.7L352.4,334.9L352.8,339.5L351.9,338.1L353.5,344.3L353.3,347.4L352,348.4L347.2,341.4L345.8,339L348,345.2L348.4,344.1L348.4,348.9L350.5,355.9L349.8,357.9L350.7,360.7L351.4,364.8L351.2,368.7L352.4,369L351.6,371.2L351.3,375.1L354.6,376.1L354.2,377.8L356.1,380.5L356.4,383.7L357.4,383.5L358.6,385.9L359.4,384.1L361.4,386.2L361.8,385.5L367.3,398L365.9,396.8L367.6,400.3L367.7,402.3L371.2,405.9L373.8,409.8L374,411.5L372.8,412L373.7,414.7L377,416.9L379.6,420.4L381.1,420.9L380.8,422.3L382.7,425.6L383.6,425.5L384.6,423.1L387.2,426.4L390.7,429L394.2,434.2L388.5,442L386.2,441.6L384.7,440.1L385.1,442L384.7,445.5L382.8,447L381,443.6L380.9,444.5L372.8,441.9L372.9,442.5L368.3,441.7L366.8,442.3L366.8,439.5L363.4,437.5L361.3,437.4L362.9,436.3L358.9,434.8L358.6,433.8L355.8,435L352.4,435.4L353.6,437.6L351.9,437.9L350.3,441.1L349.5,439.3L346.6,440.2L345.6,442.2L341.4,440.5L339.2,442.6L336.9,440.9L334.2,442.2L329.6,441.8L338.5,431.6L342.1,429.7L345,429.8L345.4,428.9L347.8,430.4L357.3,430.9L360.3,432.2L363.7,430.1L365.8,431.6L364.8,429.6L363.2,428.6L361.3,429.6L355.5,428.2L355.8,427.1L358.6,426L355,422.5L347.3,421.5L346.2,423.5L344.9,421.4L343.7,421.2L341.8,419.1L343.7,419.9L342.1,415.1L340.2,414.9L335.7,407.2L333.2,405L329.8,403.9L328.6,404.2L316.1,399.4L315.9,400.8L317.1,402.5L315.9,403.7L316.9,406.5L318.9,408L317.9,412.4L316.7,411.4L315.2,414.2L310.1,414.7L303.8,417.6L284.9,415L280.6,412L280.2,410L281.1,408.3L278.3,408.1ZM355.6,332.9L354.9,336.3L353.1,328.3L355.4,331ZM356,325.8L355.8,328.9L354.6,329L354.2,325.5L354.3,322.1L355.7,322.3ZM357.2,323.5L356.7,326.2L356.1,325.2L355.7,318.5L356.8,319.8Z"></path>
  <path fill="#7f0000" d="M836.9,316.8L836,317.4L833.3,314.7L832.4,311.4L835.1,309.8L836,311L835.8,313.3L837,313.7Z"></path>
  <path fill="#7f0000" d="M739.7,273.5L738.9,265.9L740.2,265L739.8,263L742.4,261.3L744.5,256.9L746.6,257L749.9,253.7L750.8,251.2L754.1,247.4L752.7,239.6L754.4,237.7L760.9,238L766.2,246.1L770.6,255.5L779.9,261.5L776.8,262.1L775.6,268.3L776.1,271.9L778.5,271.9L779.5,273.1L770.3,280.8L766.8,286.1L762.3,286.9L758.8,289.1L757.3,292.2L754.8,293L746.3,299.7L746.3,301.3L742.3,300.5L742.6,297.4L740.4,295.7L739.8,293.6L738.1,292.4L735.2,295.4L732.6,289.7L732.8,286.4L734.9,281.6Z"></path>
  <path fill="#7f0000" d="M884.3,307.1L888.5,303.9L891.7,304L891.3,306.8L893.6,308.9L894.3,307.4L894.5,303.8L893.5,303.2L893.3,299.9L896.8,302L898.7,306.6L902.4,312.3L905.8,321.8L907,328L907.4,331.7L906.6,346L907.2,357.5L905.5,364.6L904.4,364.3L902.5,366.8L902.4,364.8L901,364.7L893.6,371.8L892.8,369.1L894.4,367.8L895.7,360.3L895,356.4L887.6,355.7L890.2,352.4L892.1,353.3L892.5,348.8L891.3,344.6L889.7,342.8L891.2,335.6L891,332L889.2,330.4L888.3,326.2L887.2,325.6L884.8,319.9L883.9,315.3ZM897.3,318.8L899.2,325.7L900.7,323.2L901.2,321L900.3,319.6L899.8,316.1L898.6,315Z"></path>
  <path fill="#7f0000" d="M897.3,318.8L898.6,315L899.8,316.1L900.3,319.6L901.2,321L900.7,323.2L899.2,325.7Z"></path>
  <path fill="#7f0000" d="M887.6,355.7L881.7,355.1L882.1,350.9L873.9,350.2L873.9,340.6L875.1,339.4L874,336.2L873.8,332.4L877.9,328.8L880.2,322.3L882.5,321.1L883.1,316.6L883.9,315.3L884.8,319.9L887.2,325.6L888.3,326.2L889.2,330.4L891,332L891.2,335.6L889.7,342.8L891.3,344.6L892.5,348.8L892.1,353.3L890.2,352.4Z"></path>
  <path fill="#7f0000" d="M749.5,457.3L748.6,456L751.1,450.3L759,446.6L762.2,447.4L765,446.2L766.5,446.9L765.5,450L762.5,453.6L761.4,456L759,463L757,462L758.2,459.2L758.1,456.5L760.1,454.8L760.5,452.9L757.5,456.1L755.9,460.8L752.4,461.1L751.4,462L751.2,459.4Z"></path>
  <path fill="#7f0000" d="M686.1,350.5L686.7,348.8L685.8,345.2L687.2,344.3L687.7,346.5L690,347.9L688.9,351L686.7,351.4Z"></path>
  <path fill="#7f0000" d="M778.5,448.1L780.8,453.8L776.1,457.3L772.7,456.9L771.7,453.3L773.2,449.3L776.5,448.4L778.4,449.7Z"></path>
  <path fill="#7f0000" d="M795.2,270.3L793.7,269.4L796.1,265.6L795.8,263.5L794,260.8L794.1,258.5L792.1,255.6L789.3,247L787.5,245.1L787.5,243.3L794.6,243.2L810.6,249.9L817.4,255.7L823.7,264L831,270.2L829.1,272.5L819.1,273.8L815.5,271L812.1,265.1L811.3,260.7L800.7,251.8L801.4,255.1L800.3,265.8L797.5,270.2Z"></path>
  <path fill="#7f0000" d="M701.7,378.8L703,379.6L701.7,381ZM700.7,406.2L698.4,404L697.3,404.6L695.9,403L693.5,403.6L693.9,402.4L690.1,400.7L689.1,398.4L687.6,398.8L685.7,403.5L683.6,402.6L681.8,403.1L681.3,399.4L682.7,398L687.3,386.8L689.9,384.7L693.5,376.6L695.2,377.1L696.2,382.9L700.1,387.4L702.7,386.8L703.3,388.9L705.4,390L705.3,392.5L706.9,394.3L705,399.7L705.8,402.5L705.1,404.2L702.8,404.2Z"></path>
  <path fill="#7f0000" d="M776.4,286.8L779.6,290.3L779.6,291.6L782,291.5L785.5,292.9L788.1,292.4L792.8,293.3L793,294.8L795.6,296.6L798.8,297.2L799.4,299.1L805.2,299.4L805.7,302.3L807.2,303.2L807.9,300.6L810.5,297L814,294.7L814,292.9L816,292.3L816.4,297.8L817.5,299.1L818.9,300.8L818.6,302.6L819.8,305.5L819.1,309.1L820,310.3L816.8,314.6L817.8,319.2L815.7,322.4L813.6,323.5L812.7,325.9L811.1,326L808.5,330.1L807.5,329.9L806,333.5L804.9,333.4L804.7,335.7L801.5,335L798.2,337.6L793.2,338.6L792.5,340.6L791,339L789.7,339.6L788.8,338L787.5,338.4L785.9,336.6L784.6,336.5L784.4,333L772.9,332.4L771.4,332.3L771.6,329.3L765.5,329L765.6,310.1L764.7,293.2L767,292.4L774.1,290.7Z"></path>
  <path fill="#7f0000" d="M656.1,337.2L654.3,337.2L653.4,335.4ZM625.7,328.1L627.4,325.4L632.7,324.9L632.3,327.3L633.6,329.6L635.9,329.3L637.3,330.7L637.9,333.1L642.4,337.5L644.5,337.7L648.2,334.7L649.2,336.9L648.2,337.8L648.3,340.2L649.4,337.1L650.5,337.1L650.8,340.3L652.1,339.3L654.2,339.8L658,341.9L657.5,344L659.6,345.3L659.2,347.6L656.4,348.2L655.5,347.2L652.1,348.8L650.7,348.2L650,349.3L648.2,349.2L648.2,348L646.1,347.5L645.6,346.2L643.1,346.2L642.3,345L641.1,346L636.9,345.6L635.2,343.6L635.5,341.9L634,342.2L632.4,340.6L630.3,340.2L628.5,337L626.5,336.1L626.6,334.3L625.3,333.9L626,331.1L624.4,329.9Z"></path>
  <path fill="#7f0000" d="M716,283.5L718.7,285.9L724.9,285.8L728.8,291.2L732.7,296.1L731.8,299.3L730,299.5L726.8,297.1L725.5,298.9L722.6,299.7L721.5,299.3L720.4,297.5L718.5,297.7L718.4,291.2L716.5,287.5Z"></path>
  <path fill="#7f0000" d="M681.3,358.9L682.1,359.1L682.8,359.1L683.8,357.4L685.6,358.5L684.4,360.2L686.3,361.1L684.1,362L685.5,363.6L685,365.4L683.4,365.6L683.6,367.5L680.3,364.4L680.3,363L680.1,360.8Z"></path>
  <path fill="#7f0000" d="M666.3,576.4L667.2,578.2L664.4,578.1Z"></path>
  <path fill="#7f0000" d="M190.6,344.8L190.1,346.4L188.2,346.3L188.5,348.7L182.4,348.2L182.2,349L184.8,351.7L183.8,353.6L185.9,355.6L185.8,357.5L183.7,360.1L180.8,360.6L178.7,363.8L175.4,364L174.6,363.1L173.6,356.5L171.1,354.2L165.7,356.7L168,353.5L167.9,349.5L170.3,349.7L169.8,346.7L166.2,346.9L160.7,344.5L157.5,345L157.8,347.1L151.9,349.6L151.4,353.6L149.9,355.7L148.4,355L147.8,352.6L149.6,352.3L150.5,349.1L149.7,348.8L154.8,343.3L154.4,342L160.5,343.1L165.1,345.8L168.5,343.7L170.5,343.7L174.2,340.2L178.3,342.2L177.9,341.5L184.5,336.8L184.6,338.1L188.4,338.7L188.5,341.6L190.4,343.1Z"></path>
  <path fill="#7f0000" d="M245.4,276.8L246.9,273L245.2,268.5L246.6,268.1L249.1,269.1L251.1,267.9L249.9,265.6L248.7,265.3L249.2,263.8L248,259.8L249,259.3L251.7,261.5L254.3,261.5L256.2,260.2L255.8,262.9L259.4,268.4L258.2,269L257.3,267.8L256.6,269.1L255.8,267.8L257,265.7L255.3,264.7L254,268.6L254.4,269.9L252.7,271.5L252.9,275L250.2,274.9L249.3,277.3Z"></path>
  <path fill="#7f0000" d="M798.7,411.6L798.6,413.1L795.6,414.7L792.1,412.9L790.5,413.6L788.9,412.5L788.4,413.5L786.4,412.4L783.4,413.3L784.9,410L786.4,411L788.1,409.4Z"></path>
  <path fill="#7f0000" d="M726.6,363L728.9,363.3L730.6,367.1L733.5,367.9L734.7,370L728.7,370.1L726.9,371.6L722.3,372.9L720.4,370.5L714.5,369.3L713.5,368L712.8,365.1L715.1,363.8L714.4,361.9L717,363.9L720,362.8L722.8,366.3L724.4,365.8L725,364Z"></path>
  <path fill="#7f0000" d="M702.5,287.4L701.9,284.4L703.1,282.7L706.2,281.8L707.2,278.8L708.3,280.5L711.3,278.9L712.8,279.3L715,277.5L715,282.6L716,283.5L716.5,287.5L718.4,291.2L718.5,297.7L720.4,297.5L721.5,299.3L718.3,299.3L719.7,301L718.9,302.7L720.7,304.3L721.6,307.3L719.2,311.8L719.2,312.9L721.2,313.4L721.5,315.3L718.6,318.7L718.8,321.4L715.7,321.3L714.6,322.7L712.8,321.8L710.8,324.2L708,322.5L708.1,317.1L707,314.8L705.4,316.6L705.8,311.7L702.7,306.8L702.6,302.7L703.3,300.4L704.6,299.4L705.3,294.7L704.8,290.5ZM703,319.3L704.1,319.2L705.9,316.9L706.1,320.6L707.3,322.2L706.8,324.1L704.9,322.6L703.8,323.2Z"></path>
  <path fill="#7f0000" d="M269.6,245.6L267,245.1L264.9,248.8L260.8,249.2L256.6,252.6L252.2,257.2L250.3,256.4L251.4,254.5L250.7,252L248.4,250.5L248.1,246.8L246.9,246.4L246.5,244.1L248.7,242L252,242.8L253.8,240.3ZM706.2,240.3L705,242.5L705.2,247.3L704.3,248.2L706.2,252.2L708.7,253.5L709.4,255.3L704.6,256.4L704.3,258.6L701.7,258.2L702,259.8L698.7,260.6L699.6,258.4L697.5,256.5L696.8,258.3L695,259.5L695.9,261.3L698.8,260.7L696.9,262.3L695.4,261.3L694.1,258.8L696.4,255L695.5,251.4L693.6,252.1L690.5,250.1L690.4,245.6Z"></path>
  <path fill="#7f0000" d="M831.8,298.6L836.1,284.5L837.4,284.4L839.9,278L843.6,279.3L845.7,276.1L847.3,276.9L850.5,276.1L853.1,274.1L854,271.6L856.2,276L857,281.2L858.3,283L858.6,288.1L858,289.6L858.7,293L854.3,295.9L853.7,301.4L851.9,308.9L851,310L846.2,314.8L841.4,315.3L840.9,313L838.2,310L837.2,311.6L836,311L835.1,309.8L832.4,311.4Z"></path>
  <path fill="#7f0000" d="M817.5,299.1L819,297.4L823.7,295.1L828.8,298.9L831.8,298.6L832.4,311.4L833.3,314.7L827.3,313.4L823.7,308.6L822.9,310.7L820,310.3L819.1,309.1L819.8,305.5L818.6,302.6L818.9,300.8Z"></path>
  <path fill="#7f0000" d="M652.9,384.5L650.6,387.6L649.6,385.2L649.7,383.4L652.5,382.6ZM656.9,381.5L657.5,378.7L654.9,378L653.6,379.3L652.7,377.7L651.2,381.6L650.2,380L648.4,379.8L650,382.3L647.3,380.9L645.8,381.6L645.3,379.8L643,379.8L641.4,377.6L642.6,374.2L643.7,377.2L644.6,377.6L645.7,373.4L646.6,373.1L649.9,375.9L651.8,374.6L654.4,374.7L656.9,373.1L660.1,373.2L661.1,371.6L662.8,371.1L664.7,373.3L665.6,372.7L666.9,375.5L665.7,378.2L665.7,381L664.8,381.7L665.8,383.8L664.9,384.9L664.8,387.9L662.6,383.8L663.4,381.5L660.3,385.2L659.4,382.4Z"></path>
  <path fill="#7f0000" d="M692.9,315.5L692.1,318.8L690.4,317.1L688.9,317L689.2,314.6L685.9,316.6L684.2,316.7L682.8,319.7L683.3,322.1L684.9,325.9L683.9,330.2L682.4,331.7L680.4,330.7L678.9,330.3L676,327.2L673,328L672,326.4L672,323.6L674.1,313.9L671.6,313.1L671.5,311.4L670.6,307.3L672.2,306L673.8,306L674.4,304L676.4,303.3L675.9,299.5L677.8,293.7L681,294.4L683.3,293.8L683.5,295.8L685.9,296.9L687.8,301.9L690.2,304.5L692.1,303.3L691.6,299.9L692.7,300.3L692.6,302.4L695.2,305.8L694.6,307.1L692.9,306.8L692.1,309.2L690.4,306.4L689.7,306.8L689.4,310.9L688.6,313Z"></path>
  <path fill="#7f0000" d="M612.9,577.3L613,577.1L612.9,577.3ZM613,577L613.3,577.2L613,577ZM374,591.2L371.2,591.1L372.5,587.6L374.2,589.3ZM588.9,514.9L586.9,517.9L585.9,518.3ZM473.4,518.2L473.6,518.2L473.4,518.2ZM592.5,498L593.6,498.6L592.3,501.2L590.5,501.5L590.8,503.2L589,505.2L589.6,510.2L592,511L590.1,513.4L587.3,515.2L585.7,519L587.1,520.7L586.2,523.3L584,522.7L587,525.6L586.7,530.2L586.3,527.6L583.4,525.8L583.6,523.2L582.3,525L585,528.4L585.6,530.3L587,530.9L588.9,535.6L586.7,538.7L586.7,541.6L584.8,543.2L584.4,545.8L581.9,548.6L582.3,549.5L581.6,553.6L583.9,557.1L587.1,559.8L586.9,560.5L590.8,564.4L591.9,569.3L590.5,569.8L587.4,568.7L582.2,564.5L581.5,561.3L577.6,559.4L576,559.4L573.6,561.8L570.3,560.2L566.7,562.2L561.9,564.3L562.2,566L564.6,566.7L561.1,566.5L561.5,568L558.6,568.4L556.5,567.1L555.5,568.4L548.1,569.9L548.4,572L546.4,573.8L544.6,574L543.8,577.1L542.8,577.2L543.5,580.4L545.3,582.7L539.5,582.6L537.6,579.4L531,573.7L528.5,573.8L526,577L522.5,575.6L521.1,573L516.5,569.9L511.7,570.5L511.8,571.9L504.2,572.7L493.8,569.8L494,569.1L487.7,569.9L486.6,567.5L483.8,565.2L478.4,563.6L478.4,561.8L475.3,558.1L475.5,556.3L472.6,552.6L470.9,549.7L470.8,547.2L469.6,545.4L470.4,541.7L469.5,537.2L470.5,535.6L471.3,526.8L469.9,519.9L474.1,520.8L475,523.2L474.8,519.4L474.1,518.2L532.1,511.4L533.4,511.9L536.9,511.3L540.6,512L541.5,511.1L544.9,510.9L546.5,509.2L557.1,511.2L558,512.4L561.7,513.2L564.8,518L565.1,521.1L564.4,523.4L565.9,524L572.4,517.3L571.1,515.6L571.9,514.7L575.8,512.8L577.6,507.1L585.4,502L585,494.2L588.3,493.7L590.6,497.3ZM392,481.5L391.2,482.4L389.1,481.7ZM399,481.5L399.3,482.4L395.9,481L397.3,480.6ZM459,496.5L458.6,498.2L457.4,497.3ZM454.6,494.3L456.8,497.2L456.8,499.5L454.5,496.5ZM452.4,491L452.4,494.5L451,490.8ZM420.4,480.9L421.7,482.5L420.1,482.3L417.6,483.7L416.8,481.6ZM451.3,488.2L452.6,490.7L449.9,489.2ZM453.2,488.8L454.4,491.3L453,490.4ZM401.8,465.1L400.8,466.6L399.5,464.5ZM398.1,453L399.9,453.8L401.7,456L399.8,456ZM448.4,457.3L443.2,480.7L446.5,481.3L446.2,482L448.5,484.9L448.6,485.8L452.5,483.9L455.6,488.3L457.8,494L461,496.4L460.9,498.2L459.3,499.6L459.2,495.6L457.8,495.2L456,491.1L453.2,488.1L452.6,484.9L452.5,488.5L449.7,488L447,484.7L444.9,483.4L445.6,482L443.9,482.6L442.4,481L437.9,480.3L435.5,477.7L432.8,476.3L432.5,475.1L430.4,475.9L431.5,477.1L430.2,478.3L428,477.5L425.4,478.8L423.6,478.1L425.7,477.3L424.2,476.9L425.9,474.6L429.9,473.6L425.8,473.8L423.3,475.6L419.6,477L421,478.4L418.6,479.7L413.9,480.4L413.4,481.3L409.6,481.4L406.4,482.8L406.4,481.9L401.8,482.2L399.5,481L403.1,480.2L405.6,481.8L406.1,480.3L409.6,480.4L412.2,478.7L413.2,476.8L415.4,475.3L412.4,475.8L412.5,474L411,475.8L409.4,473L405.9,472.7L407.4,472L407.9,468.6L404.3,468.2L403.1,465.3L404,464.6L403.2,462.1L407.9,459.6L409.7,461L411.5,460.4L414.2,460.7L413.6,458.9L414.7,457.9L411.7,458.2L407.1,455.1L406.6,453.1L408,453.6L405.5,451.1L411.9,451.9L412.4,453.6L416.3,455.1L416.4,453L413.4,451.2L413.4,449.8L410.5,446.3L411.9,445.6L415.7,447L418.8,445.8L425,447L427.5,447L430.2,449.1L433,450L433.1,451L437.1,452.2L442.8,455.1L445.4,455.4Z"></path>
  <path fill="#7f0000" d="M785.3,422.9L782.9,425.5L782.4,429.2L779.4,431L775.8,428.8L775.6,425.7L773.4,424.6L772.8,423L774.3,421.7L773,420.7L773.5,419.5L772.2,417.7L771.8,411.5L773.2,408.7L777,408.6L779.2,408L780.9,406.5L781.3,404.6L783.8,404.5L784.7,406.1L784.1,407.9L784.9,410L783.4,413.3L783.6,415L780.9,422Z"></path>
  <path fill="#7f0000" d="M737.1,649.8L739.8,647.5L743.7,646.7L744.9,645.2L752.2,642L755.8,640.8L754.8,642.7L756,643.1L754.5,646.6L747.1,653.2L743.8,654.8L741.2,656.8L738.6,657.5L737.6,654.8Z"></path>
  <path fill="#7f0000" d="M696,253.8L684.9,257.1L681.5,252.1L682.9,248.2L690.4,245.6L690.5,250.1L693.6,252.1L695.5,251.4ZM277.1,248.2L271.9,251.4L270.7,258L267.6,259.2L267.7,260L264.8,259L264.5,260.1L261.8,259.9L261.2,262.7L259.1,263.5L261.1,265.4L262.8,270.4L261,268.1L259.1,270.7L260.3,271.6L258.4,272.5L257.4,274.6L255.9,270.8L256.6,269.1L257.3,267.8L258.2,269L259.4,268.4L255.8,262.9L256.2,260.2L254.3,261.5L251.7,261.5L249,259.3L250.3,256.4L252.2,257.2L256.6,252.6L260.8,249.2L264.9,248.8L267,245.1L269.6,245.6L277.1,248.2Z"></path>
  <path fill="#7f0000" d="M676.2,589L676.6,591.1L672.2,595.8L672.6,597.2L670.6,597.2L668.7,598.7L665.8,599.4L668.6,599.8L670.8,602L673.2,601.5L669.1,609.2L668.3,608.5L666.5,610.5L664,610.5L661.4,608.4L658.8,608.6L659.6,606.2L656.2,604.6L655,599.9L649.8,603.4L645.8,602.8L640.1,605.9L638,605.5L637.6,603.8L634.9,602L633,602.8L632.9,596.4L633.6,594.1L635.3,592.6L633.8,594.4L636.2,595.9L635.8,599.1L638.4,600.2L639.7,598.5L636.1,595.2L640.3,591.1L638.8,591.4L638.5,589.6L640,590.4L644.7,589.4L646.4,590.6L651.7,586.8L655.9,586.1L659.1,582.5L657.3,583.2L663.8,578.5L661.3,580.9L664.3,581.8L664.1,580.8L668.8,579.5L669.2,582.2L672.7,579.9L673.7,580.2L672.4,583.7L674.4,583.9L672.6,586.4L673.1,588.7Z"></path>
  <path fill="#7f0000" d="M176.9,370.4L178.6,370.6L179.8,368.7L180.9,369.4L181.6,366.8L183.1,366.1L186.4,361.2L187.3,361.1L188.7,356.8L190,357.1L190,359L191.3,359.8L193.9,356.8L192.8,355.7L193.1,354L195.8,353.1L195.4,352.2L197.5,350.3L198.7,351.2L197.9,353L199.1,353.7L198.5,355.7L201.6,359.4L200.9,360.2L200.8,363.7L198.3,364L197.5,368.2L196.5,366.5L191.5,362.8L188.5,362.2L184.4,366.4L179.7,374.1L172.8,377.6L171.2,376.8L168,377L164.2,371.7L163.2,367.9L161.5,369.6L162.3,367L160.7,368.6L157.9,364.9L157.8,364L161.8,364.6L162.8,362.2L164.7,364.2L164.7,367.9L167.1,366.4L170,371.6Z"></path>
  <path fill="#7f0000" d="M873.1,339.8L873.2,333.6L873.8,332.4L874,336.2L875.1,339.4L873.9,340.6L873.9,350.2L882.1,350.9L881.7,355.1L887.6,355.7L895,356.4L895.7,360.3L894.4,367.8L892.8,369.1L893.6,371.8L890.4,376.6L883.3,379.2L880,378.5L868.4,388.1L866.5,388L866.8,382.1L868.4,378.9L870.8,360.5L872,358.7L873.2,350.8Z"></path>
  <path fill="#7f0000" d="M891.7,304L893.5,303.2L894.5,303.8L894.3,307.4L893.6,308.9L891.3,306.8Z"></path>
  <path fill="#7f0000" d="M783.2,235.9L782.8,233.6L784.1,235.7ZM766.2,246.1L772.2,241L773.9,243.2L775.7,243L781.4,252.1L783,253.1L786.9,262.4L789,264.1L790.1,269.3L783,272.9L779.5,273.1L778.5,271.9L776.1,271.9L775.6,268.3L776.8,262.1L779.9,261.5L770.6,255.5Z"></path>
  <path fill="#7f0000" d="M873.1,339.8L869.3,345.7L861.9,345.1L862.4,337L857.2,336.9L858.7,335.1L858.2,331.5L859.3,331.5L860.3,325.4L859.3,324.1L861.1,322.3L861.7,319.1L863.8,316.8L864,313.6L860.8,313.7L861.4,316.8L859.4,319.5L857.2,318.1L853.7,319.4L851.7,317.3L851,310L851.9,308.9L853.7,301.4L856.5,298.2L857.3,300L860.4,299.7L864,302L864.9,299.7L867.6,311.9L869.1,311.1L869.9,317.2L871.3,317.9L872.2,321.7L874.4,325L873.8,332.4L873.2,333.6Z"></path>
  <path fill="#7f0000" d="M884.3,307.1L883.9,315.3L883.1,316.6L882.5,321.1L880.2,322.3L877.9,328.8L873.8,332.4L874.4,325L872.2,321.7L871.3,317.9L869.9,317.2L869.1,311.1L870,311L869.9,307.5L871.3,300.5L875,299.9L876.4,301.4L878.6,300L880.1,302.1L881.8,302.1Z"></path>
  <path fill="#7f0000" d="M123.3,429.7L122.8,433L121.5,430.8L121.6,425.6ZM130.6,448.5L129.7,448.7L127.1,446.8L125.5,443.4L128.5,444.6ZM120.9,416.1L120.2,413.4L122.1,415.1ZM123.7,422.5L124.7,425L123.9,426L120.5,417L122.4,418L122.5,421.4ZM129.9,439.7L128.6,439.5L126.6,435.8L124.6,428.3L126.6,430.6L127.8,437.5ZM132,445.5L132.3,447.8L131,445ZM121.3,411.7L120.9,412.7L119.2,410.7L120.4,407.7ZM136.1,452.9L134,449.8L135.1,450.2ZM156.7,496L153.9,495.2L152.3,492.5L155.3,493.1ZM144.8,470.5L142,469.1L143.4,469ZM123,405.2L121.7,403.6L121.4,400.4ZM119.1,375.1L119.9,383.4L118.8,385.3L119.7,391.6L121.5,393.4L121,394.4L121.6,399.8L120.2,401.3L121.2,407.5L119.3,407.7L118.8,403.2L117.3,397.2L117,387.8L116,383.5L115.9,376.7L116.9,376.8L116.6,371.9ZM153.7,478.4L152.7,479.6L152.4,477.4ZM138,435.8L136,436L135.7,434.8L137.3,434.6ZM138.5,437.6L137.1,438.1L135.4,436.4L138.7,436.3ZM147.4,449.6L146.6,450.9L145.3,449.2L145.5,446.4L146.3,446.4ZM152,459.2L152.7,462.1L151.3,463.7L151.1,459.9L149.9,456.3L148.7,455.1L149.8,453.4ZM129.2,379.9L128.9,381.6L127.5,381.1L127.3,379.3ZM154.7,459.6L154.4,457.8L155.8,459.7ZM130.1,373.1L128.5,374.2L128.3,376L127,376L127.3,373.1L128.9,372L128.8,369.7L130.4,371.1ZM129,346.3L126.9,347.7L128.2,345.2ZM166.4,475.9L166.9,479.4L165.9,477.8ZM171.7,496.4L157.2,504.9L157.3,500.2L158.2,500.4L155,496.7L157,496.4L156.9,494.5L158.1,496.4L158.1,494L159.9,490.3L156.5,475.5L156.7,473L154,471.1L155.8,470L155.6,466.4L156.8,469.1L158.6,470.4L158.6,472.2L160.4,472.4L157.4,467L158.3,464.9L157.5,461.5L159.3,461.9L161.9,464.8L163.8,471.5L160.3,473.4L160.6,475.2L159.3,477.4L160.1,479.1L164.2,480.7L166,483.3L166.6,482.7L168.6,484.7ZM160.7,459.7L159.8,460.3L159.3,457.7ZM135.1,340.7L134,342.3L132.8,341.9L134.9,339.2ZM156.3,438.8L152.5,436.7L147.7,422.8L145,422.9L143.7,425.7L144.1,427.2L146.3,428.6L146.3,429.8L148.7,433.5L147.8,434.8L147.5,432.9L143.6,429.7L143.4,428.3L141.4,433.6L140.1,433L138.9,436.2L136.4,431.6L138.1,431.3L138.6,428.2L140.7,428.3L139.2,425.3L132.9,428.4L131.9,424.7L137,423.2L136.3,421.2L138.1,420L140.9,421.5L143.8,421.2L144.2,422.4L148.4,421.7L149.2,423.6L151.1,424.4L153.2,434.9L156.8,437.9ZM161,447.7L158.3,448.4L160.3,449.2L161.5,450.8L160.3,451.2L158.9,449.8L158.4,452.8L157.2,449.2L154.9,452.2L155.6,449L158.4,446.8ZM155.1,410.9L155.3,411.6L155.1,410.9ZM155,410.5L154,411.7L152.9,409L150.5,413.7L149.2,413.3L148,417.9L146.6,414.7L144.1,413.2L142,414.4L138,410.1L137.2,411.8L133.2,410.5L130.4,406.2L132,404.9L131.3,401.9L132,399.4L129.5,395.4L131.5,394.4L130.6,393.8L129.7,389L132.5,387.1L133.9,387.4L135.4,383.6L138.7,381.9L140.8,382.4L142.6,384.1L141.4,384.5L140,388.1L141.4,392.5L143.4,394.5L143.5,398.9L144.9,402L147.2,402.3L150,404.1L153.2,404ZM146.2,333.6L145.3,335.8L145.6,340L142.8,342.8L140,349.2L137.2,353L138.5,353.3L135.1,358.7L134.8,362.2L133.5,364L132.6,362.1L131.5,362.6L131.1,366.5L128.8,367.2L128,368.7L128.2,371.6L126.8,373.5L119.2,373.4L120.1,371.5L119.1,371.1L119.5,368.8L118.4,369L123.9,357L129.9,351.3L132,348.7L132.4,346.8L136.3,345.2L137.4,341.4L141.1,338L143.7,333L146.1,331.8Z"></path>
  <path fill="#7f0000" d="M743.1,239.1L745,238.3L746.7,239.6L748,238.4L748.7,239.8L752.7,239.6L754.1,247.4L750.8,251.2L751.4,249.6L749.3,243.9L743.2,240.3L742,240Z"></path>
  <path fill="#7f0000" d="M135,455.6L129.7,448.7L130.6,447.6L133,450.5Z"></path>
  <path fill="#7f0000" d="M693.7,354.7L693.7,354.7L693.7,354.7Z"></path>
  <path fill="#7f0000" d="M736.1,452.1L733.1,450.1L732.6,448.4L729.2,444.5L728.3,440.9L724.7,437.8L724.3,434.7L722.1,432.4L727.3,420.8L728.4,421.2L732.1,422.8L728.3,431.6L735.4,434.9L735.6,438.6L740.1,440.3L734.7,451.1Z"></path>
  <path fill="#7f0000" d="M700.2,337.8L699.3,337.1L697.1,339.5L696.6,338.8L692.8,339.5L691.8,338.5L689.5,339.6L689.2,336.4L692.4,333.8L693.5,334.2L695.5,331.4L696.7,332.2L698.8,330.9L701.4,332.5L702.5,336.8Z"></path>
  <path fill="#ef6548" d="M699.9,355.8L699.9,355.8L699.9,355.8Z"></path>
  <path fill="#fff7ec" d="M606.8,324.7L607.6,322.6L608.3,325.7L607.8,328.1L606.7,327.9ZM603.7,333.1L605,330.4L605.8,327L606,330.5L607.3,331.5L608.6,334L606.5,337.4L602.8,341.1L604,336.8L603.3,336ZM603.3,328.9L604.1,324.8L603.9,322.5L604.6,319.4L605.4,324.4L604.2,330.5Z"></path>
  <path fill="#fff7ec" d="M648.3,562.7L648,562.9L648.3,562.7Z"></path>
  <path fill="#fff7ec" d="M648,562.9L648.3,562.7L648,562.9Z"></path>
  <path fill="#fff7ec" d="M830.2,612.5L834.2,608.3L835.3,608.1Z"></path>
  <path fill="#fff7ec" d="M218.3,404.9L216.4,405.8L207.9,405.1L210.6,402.2L212.4,401.8L217.3,403Z"></path>
</svg>
